<?xml version="1.0" standalone="no"?>
  <!DOCTYPE svg PUBLIC "-//W3C//DTD SVG 1.1//EN" "http://www.w3.org/Graphics/SVG/1.1/DTD/svg11.dtd" >
  <svg>
  <metadata>
  Created by font-carrier
  </metadata>
  <defs>
  <font id="Stolzl-Regular" horiz-adv-x="1517" vert-adv-y="1517" >
    <font-face
      
      font-family="Stolzl"
      
      font-weight="400"
      
      font-stretch="normal"
      
      units-per-em="1000"
      
      ascent="950"
      
      descent="-250"
      
    />
      <missing-glyph />

      

      
      <glyph glyph-name="uni41" unicode="&#x41;" d="M597 0L717 0L446 700L302 700L31 0L151 0L222 188L526 188ZM263 295L374 588L485 295Z"  horiz-adv-x="748" vert-adv-y="1000"  />

      
      <glyph glyph-name="unic1" unicode="&#xc1;" d="M489 917L421 985L258 821L309 770ZM597 0L717 0L446 700L302 700L31 0L151 0L222 188L526 188ZM263 295L374 588L485 295Z"  horiz-adv-x="748" vert-adv-y="1000"  />

      
      <glyph glyph-name="uni0102" unicode="&#x0102;" d="M374 777C461 777 537 836 537 933L537 955L447 955L447 936C447 892 418 864 374 864C329 864 300 892 300 936L300 955L210 955L210 933C210 836 286 777 374 777ZM597 0L717 0L446 700L302 700L31 0L151 0L222 188L526 188ZM263 295L374 588L485 295Z"  horiz-adv-x="748" vert-adv-y="1000"  />

      
      <glyph glyph-name="unic2" unicode="&#xc2;" d="M374 878L476 770L538 831L374 995L211 831L272 770ZM597 0L717 0L446 700L302 700L31 0L151 0L222 188L526 188ZM263 295L374 588L485 295Z"  horiz-adv-x="748" vert-adv-y="1000"  />

      
      <glyph glyph-name="unic4" unicode="&#xc4;" d="M260 809C299 809 327 837 327 874C327 911 299 939 260 939C222 939 193 911 193 874C193 837 222 809 260 809ZM487 809C526 809 555 837 555 874C555 911 526 939 487 939C448 939 419 911 419 874C419 837 448 809 487 809ZM597 0L717 0L446 700L302 700L31 0L151 0L222 188L526 188ZM263 295L374 588L485 295Z"  horiz-adv-x="748" vert-adv-y="1000"  />

      
      <glyph glyph-name="unic0" unicode="&#xc0;" d="M489 821L325 985L258 917L437 770ZM597 0L717 0L446 700L302 700L31 0L151 0L222 188L526 188ZM263 295L374 588L485 295Z"  horiz-adv-x="748" vert-adv-y="1000"  />

      
      <glyph glyph-name="uni0100" unicode="&#x0100;" d="M499 915L249 915L249 831L499 831ZM597 0L717 0L446 700L302 700L31 0L151 0L222 188L526 188ZM263 295L374 588L485 295Z"  horiz-adv-x="748" vert-adv-y="1000"  />

      
      <glyph glyph-name="uni0104" unicode="&#x0104;" d="M717 0L446 700L302 700L31 0L151 0L222 188L526 188L597 0L642 0C575-61 527-105 527-166C527-234 581-262 656-262C678-262 709-259 717-258L717-193C709-195 692-198 674-198C636-198 615-184 615-152C615-113 647-77 717 0ZM263 295L374 588L485 295Z"  horiz-adv-x="748" vert-adv-y="1000"  />

      
      <glyph glyph-name="unic5" unicode="&#xc5;" d="M373 770C442 770 500 826 499 896C500 966 443 1022 373 1022C303 1022 248 966 248 896C248 826 304 770 373 770ZM373 955C406 955 432 930 432 895C432 861 406 835 373 835C341 835 314 861 315 895C314 930 341 955 373 955ZM597 0L717 0L446 700L302 700L31 0L151 0L222 188L526 188ZM263 295L374 588L485 295Z"  horiz-adv-x="748" vert-adv-y="1000"  />

      
      <glyph glyph-name="unic3" unicode="&#xc3;" d="M305 852C327 852 344 837 365 819C396 793 414 781 446 781C507 781 550 822 550 933L480 933C480 891 467 869 442 869C421 869 404 884 382 902C351 928 334 940 301 940C240 940 198 900 198 789L268 789C268 831 280 852 305 852ZM597 0L717 0L446 700L302 700L31 0L151 0L222 188L526 188ZM263 295L374 588L485 295Z"  horiz-adv-x="748" vert-adv-y="1000"  />

      
      <glyph glyph-name="unic6" unicode="&#xc6;" d="M833 592L833 700L446 700L302 700L31 0L151 0L222 188L376 188L376 0L833 0L833 108L489 108L489 303L807 303L807 411L489 411L489 592ZM263 295L376 593L376 295Z"  horiz-adv-x="874" vert-adv-y="1000"  />

      
      <glyph glyph-name="uni42" unicode="&#x42;" d="M500 374C563 403 593 449 593 520C593 635 516 700 380 700L82 700L82 0L384 0C531 0 616 75 616 198C616 283 579 350 500 374ZM479 502C479 445 449 412 367 412L195 412L195 592L366 592C447 592 479 563 479 502ZM381 108L195 108L195 308L380 308C472 308 502 271 502 207C502 147 473 108 381 108Z"  horiz-adv-x="657" vert-adv-y="1000"  />

      
      <glyph glyph-name="uni43" unicode="&#x43;" d="M416-12C578-12 707 86 751 231L630 231C593 149 514 96 415 96C272 96 169 204 169 350C169 496 272 604 415 604C514 604 593 551 630 469L751 469C707 614 578 712 416 712C208 712 55 557 55 350C55 143 208-12 416-12Z"  horiz-adv-x="792" vert-adv-y="1000"  />

      
      <glyph glyph-name="uni0106" unicode="&#x0106;" d="M443 985L280 821L331 770L511 917ZM416-12C578-12 707 86 751 231L630 231C593 149 514 96 415 96C272 96 169 204 169 350C169 496 272 604 415 604C514 604 593 551 630 469L751 469C707 614 578 712 416 712C208 712 55 557 55 350C55 143 208-12 416-12Z"  horiz-adv-x="792" vert-adv-y="1000"  />

      
      <glyph glyph-name="uni010C" unicode="&#x010C;" d="M560 936L498 997L396 889L294 997L233 936L396 772ZM416-12C578-12 707 86 751 231L630 231C593 149 514 96 415 96C272 96 169 204 169 350C169 496 272 604 415 604C514 604 593 551 630 469L751 469C707 614 578 712 416 712C208 712 55 557 55 350C55 143 208-12 416-12Z"  horiz-adv-x="792" vert-adv-y="1000"  />

      
      <glyph glyph-name="unic7" unicode="&#xc7;" d="M415 96C272 96 169 204 169 350C169 496 272 604 415 604C514 604 593 551 630 469L751 469C707 614 578 712 416 712C208 712 55 557 55 350C55 164 179 20 355-7L309-113C378-119 400-138 400-163C400-191 372-204 330-204C310-204 292-201 284-200L284-258C292-259 319-262 343-262C429-262 488-232 488-169C488-115 444-88 396-79L430-12C586-6 708 91 751 231L630 231C593 149 514 96 415 96Z"  horiz-adv-x="792" vert-adv-y="1000"  />

      
      <glyph glyph-name="uni44" unicode="&#x44;" d="M327 700L82 700L82 0L327 0C530 0 685 148 685 350C685 553 531 700 327 700ZM328 108L195 108L195 592L328 592C469 592 572 492 572 350C572 207 469 108 328 108Z"  horiz-adv-x="737" vert-adv-y="1000"  />

      
      <glyph glyph-name="unid0" unicode="&#xd0;" d="M327 700L82 700L82 404L18 404L18 296L82 296L82 0L327 0C530 0 685 148 685 350C685 553 531 700 327 700ZM328 108L195 108L195 296L317 296L317 404L195 404L195 592L328 592C469 592 572 492 572 350C572 207 469 108 328 108Z"  horiz-adv-x="737" vert-adv-y="1000"  />

      
      <glyph glyph-name="uni010E" unicode="&#x010E;" d="M491 936L429 997L327 889L225 997L164 936L327 772ZM327 700L82 700L82 0L327 0C530 0 685 148 685 350C685 553 531 700 327 700ZM328 108L195 108L195 592L328 592C469 592 572 492 572 350C572 207 469 108 328 108Z"  horiz-adv-x="737" vert-adv-y="1000"  />

      
      <glyph glyph-name="uni0110" unicode="&#x0110;" d="M327 700L82 700L82 404L18 404L18 296L82 296L82 0L327 0C530 0 685 148 685 350C685 553 531 700 327 700ZM328 108L195 108L195 296L317 296L317 404L195 404L195 592L328 592C469 592 572 492 572 350C572 207 469 108 328 108Z"  horiz-adv-x="737" vert-adv-y="1000"  />

      
      <glyph glyph-name="uni45" unicode="&#x45;" d="M539 592L539 700L82 700L82 0L539 0L539 108L195 108L195 303L514 303L514 411L195 411L195 592Z"  horiz-adv-x="580" vert-adv-y="1000"  />

      
      <glyph glyph-name="unic9" unicode="&#xc9;" d="M406 917L338 985L175 821L226 770ZM539 592L539 700L82 700L82 0L539 0L539 108L195 108L195 303L514 303L514 411L195 411L195 592Z"  horiz-adv-x="580" vert-adv-y="1000"  />

      
      <glyph glyph-name="uni011A" unicode="&#x011A;" d="M454 936L392 997L290 889L188 997L127 936L290 772ZM539 592L539 700L82 700L82 0L539 0L539 108L195 108L195 303L514 303L514 411L195 411L195 592Z"  horiz-adv-x="580" vert-adv-y="1000"  />

      
      <glyph glyph-name="unica" unicode="&#xca;" d="M290 878L392 770L454 831L290 995L127 831L188 770ZM539 592L539 700L82 700L82 0L539 0L539 108L195 108L195 303L514 303L514 411L195 411L195 592Z"  horiz-adv-x="580" vert-adv-y="1000"  />

      
      <glyph glyph-name="unicb" unicode="&#xcb;" d="M176 809C215 809 243 837 243 874C243 911 215 939 176 939C138 939 109 911 109 874C109 837 138 809 176 809ZM403 809C442 809 471 837 471 874C471 911 442 939 403 939C364 939 335 911 335 874C335 837 364 809 403 809ZM539 592L539 700L82 700L82 0L539 0L539 108L195 108L195 303L514 303L514 411L195 411L195 592Z"  horiz-adv-x="580" vert-adv-y="1000"  />

      
      <glyph glyph-name="uni0116" unicode="&#x0116;" d="M290 809C329 809 357 837 357 874C357 911 329 939 290 939C252 939 223 911 223 874C223 837 252 809 290 809ZM539 592L539 700L82 700L82 0L539 0L539 108L195 108L195 303L514 303L514 411L195 411L195 592Z"  horiz-adv-x="580" vert-adv-y="1000"  />

      
      <glyph glyph-name="unic8" unicode="&#xc8;" d="M406 821L242 985L175 917L354 770ZM539 592L539 700L82 700L82 0L539 0L539 108L195 108L195 303L514 303L514 411L195 411L195 592Z"  horiz-adv-x="580" vert-adv-y="1000"  />

      
      <glyph glyph-name="uni0112" unicode="&#x0112;" d="M415 915L165 915L165 831L415 831ZM539 592L539 700L82 700L82 0L539 0L539 108L195 108L195 303L514 303L514 411L195 411L195 592Z"  horiz-adv-x="580" vert-adv-y="1000"  />

      
      <glyph glyph-name="uni0118" unicode="&#x0118;" d="M539 592L539 700L82 700L82 0L464 0C397-61 349-105 349-166C349-234 403-262 478-262C500-262 531-259 539-258L539-193C531-195 514-198 496-198C458-198 437-184 437-152C437-113 469-77 539 0L539 108L195 108L195 303L514 303L514 411L195 411L195 592Z"  horiz-adv-x="580" vert-adv-y="1000"  />

      
      <glyph glyph-name="uni46" unicode="&#x46;" d="M539 592L539 700L82 700L82 0L195 0L195 298L514 298L514 406L195 406L195 592Z"  horiz-adv-x="580" vert-adv-y="1000"  />

      
      <glyph glyph-name="uni47" unicode="&#x47;" d="M376 372L376 276L639 276C621 162 528 93 411 93C260 93 166 205 166 347C166 497 269 604 412 604C511 604 589 554 627 474L748 474C704 616 576 712 413 712C206 712 52 558 52 349C52 140 205-12 403-12C528-12 623 50 656 140L656 0L754 0L754 372Z"  horiz-adv-x="831" vert-adv-y="1000"  />

      
      <glyph glyph-name="uni0122" unicode="&#x0122;" d="M376 372L376 276L639 276C621 162 528 93 411 93C260 93 166 205 166 347C166 497 269 604 412 604C511 604 589 554 627 474L748 474C704 616 576 712 413 712C206 712 52 558 52 349C52 140 205-12 403-12C528-12 623 50 656 140L656 0L754 0L754 372ZM419-64C389-64 361-84 361-117C361-142 378-159 404-163L358-250L423-250C469-159 477-135 476-117C475-82 447-64 419-64Z"  horiz-adv-x="831" vert-adv-y="1000"  />

      
      <glyph glyph-name="uni48" unicode="&#x48;" d="M554 700L554 414L195 414L195 700L82 700L82 0L195 0L195 306L554 306L554 0L667 0L667 700Z"  horiz-adv-x="748" vert-adv-y="1000"  />

      
      <glyph glyph-name="uni49" unicode="&#x49;" d="M82 0L195 0L195 700L82 700Z"  horiz-adv-x="277" vert-adv-y="1000"  />

      
      <glyph glyph-name="unicd" unicode="&#xcd;" d="M185 985L22 821L73 770L253 917ZM82 0L195 0L195 700L82 700Z"  horiz-adv-x="277" vert-adv-y="1000"  />

      
      <glyph glyph-name="unice" unicode="&#xce;" d="M302 831L138 995L-25 831L36 770L138 878L240 770ZM82 0L195 0L195 700L82 700Z"  horiz-adv-x="277" vert-adv-y="1000"  />

      
      <glyph glyph-name="unicf" unicode="&#xcf;" d="M24 939C-14 939-43 911-43 874C-43 837-14 809 24 809C63 809 91 837 91 874C91 911 63 939 24 939ZM251 939C212 939 183 911 183 874C183 837 212 809 251 809C290 809 319 837 319 874C319 911 290 939 251 939ZM82 0L195 0L195 700L82 700Z"  horiz-adv-x="277" vert-adv-y="1000"  />

      
      <glyph glyph-name="unicc" unicode="&#xcc;" d="M89 985L22 917L201 770L253 821ZM82 0L195 0L195 700L82 700Z"  horiz-adv-x="277" vert-adv-y="1000"  />

      
      <glyph glyph-name="uni012A" unicode="&#x012A;" d="M263 915L13 915L13 831L263 831ZM82 0L195 0L195 700L82 700Z"  horiz-adv-x="277" vert-adv-y="1000"  />

      
      <glyph glyph-name="uni012E" unicode="&#x012E;" d="M82 700L82 0L120 0C53-61 5-105 5-166C5-234 59-262 134-262C156-262 187-259 195-258L195-193C187-195 170-198 152-198C114-198 93-184 93-152C93-113 125-77 195 0L195 700Z"  horiz-adv-x="277" vert-adv-y="1000"  />

      
      <glyph glyph-name="uni4a" unicode="&#x4a;" d="M375 700L375 229C375 132 325 96 259 96C193 96 145 130 145 225L145 263L31 263L31 222C31 67 130-12 258-12C388-12 489 70 489 226L489 700Z"  horiz-adv-x="571" vert-adv-y="1000"  />

      
      <glyph glyph-name="uni4b" unicode="&#x4b;" d="M634 0L318 359L620 700L478 700L195 380L195 700L82 700L82 0L195 0L195 334L491 0Z"  horiz-adv-x="665" vert-adv-y="1000"  />

      
      <glyph glyph-name="uni0136" unicode="&#x0136;" d="M318 359L620 700L478 700L195 380L195 700L82 700L82 0L195 0L195 334L491 0L634 0ZM337-64C307-64 279-84 279-117C279-142 296-159 322-163L276-250L341-250C387-159 395-135 394-117C393-82 365-64 337-64Z"  horiz-adv-x="665" vert-adv-y="1000"  />

      
      <glyph glyph-name="uni4c" unicode="&#x4c;" d="M195 108L195 700L82 700L82 0L514 0L514 108Z"  horiz-adv-x="544" vert-adv-y="1000"  />

      
      <glyph glyph-name="uni0139" unicode="&#x0139;" d="M388 917L320 985L157 821L208 770ZM195 108L195 700L82 700L82 0L514 0L514 108Z"  horiz-adv-x="544" vert-adv-y="1000"  />

      
      <glyph glyph-name="uni013D" unicode="&#x013D;" d="M385 526C432 617 439 641 439 659C438 693 409 712 381 712C352 712 324 692 324 659C324 633 341 617 367 613L321 526ZM195 108L195 700L82 700L82 0L514 0L514 108Z"  horiz-adv-x="544" vert-adv-y="1000"  />

      
      <glyph glyph-name="uni013B" unicode="&#x013B;" d="M195 108L195 700L82 700L82 0L514 0L514 108ZM277-64C247-64 219-84 219-117C219-142 236-159 262-163L216-250L281-250C327-159 335-135 334-117C333-82 305-64 277-64Z"  horiz-adv-x="544" vert-adv-y="1000"  />

      
      <glyph glyph-name="uni0141" unicode="&#x0141;" d="M195 108L195 289L318 319L318 427L195 397L195 700L82 700L82 369L18 353L18 245L82 261L82 0L514 0L514 108Z"  horiz-adv-x="544" vert-adv-y="1000"  />

      
      <glyph glyph-name="uni4d" unicode="&#x4d;" d="M612 700L411 398L210 700L77 700L77 0L190 0L190 547L405 221L416 221L632 547L632 0L745 0L745 700Z"  horiz-adv-x="827" vert-adv-y="1000"  />

      
      <glyph glyph-name="uni4e" unicode="&#x4e;" d="M550 700L550 407L560 160L210 700L77 700L77 0L190 0L190 293L179 541L529 0L663 0L663 700Z"  horiz-adv-x="740" vert-adv-y="1000"  />

      
      <glyph glyph-name="uni0143" unicode="&#x0143;" d="M485 917L417 985L254 821L305 770ZM550 700L550 407L560 160L210 700L77 700L77 0L190 0L190 293L179 541L529 0L663 0L663 700Z"  horiz-adv-x="740" vert-adv-y="1000"  />

      
      <glyph glyph-name="uni0147" unicode="&#x0147;" d="M533 936L471 997L369 889L267 997L206 936L369 772ZM550 700L550 407L560 160L210 700L77 700L77 0L190 0L190 293L179 541L529 0L663 0L663 700Z"  horiz-adv-x="740" vert-adv-y="1000"  />

      
      <glyph glyph-name="uni0145" unicode="&#x0145;" d="M550 700L550 407L560 160L210 700L77 700L77 0L190 0L190 293L179 541L529 0L663 0L663 700ZM374-64C344-64 316-84 316-117C316-142 333-159 359-163L313-250L378-250C424-159 432-135 431-117C430-82 402-64 374-64Z"  horiz-adv-x="740" vert-adv-y="1000"  />

      
      <glyph glyph-name="uni014A" unicode="&#x014A;" d="M550 700L550 407L560 160L210 700L77 700L77 0L190 0L190 293L179 541L529 0L550 0L550-33C550-113 513-157 442-157C406-157 368-145 324-130L305-222C335-240 398-262 461-262C575-262 663-191 663-39L663 0L663 700Z"  horiz-adv-x="740" vert-adv-y="1000"  />

      
      <glyph glyph-name="unid1" unicode="&#xd1;" d="M301 852C323 852 340 837 361 819C392 793 410 781 442 781C503 781 546 822 546 933L476 933C476 891 463 869 438 869C417 869 400 884 378 902C347 928 330 940 297 940C236 940 194 900 194 789L264 789C264 831 276 852 301 852ZM550 700L550 407L560 160L210 700L77 700L77 0L190 0L190 293L179 541L529 0L663 0L663 700Z"  horiz-adv-x="740" vert-adv-y="1000"  />

      
      <glyph glyph-name="uni4f" unicode="&#x4f;" d="M415 712C210 712 52 556 52 350C52 144 210-12 415-12C620-12 777 144 778 350C777 556 620 712 415 712ZM415 604C556 604 663 496 663 350C663 204 556 96 415 96C273 96 166 204 166 350C166 496 273 604 415 604Z"  horiz-adv-x="829" vert-adv-y="1000"  />

      
      <glyph glyph-name="unid3" unicode="&#xd3;" d="M462 985L299 821L350 770L530 917ZM415 712C210 712 52 556 52 350C52 144 210-12 415-12C620-12 777 144 778 350C777 556 620 712 415 712ZM415 604C556 604 663 496 663 350C663 204 556 96 415 96C273 96 166 204 166 350C166 496 273 604 415 604Z"  horiz-adv-x="829" vert-adv-y="1000"  />

      
      <glyph glyph-name="unid4" unicode="&#xd4;" d="M578 831L414 995L251 831L312 770L414 878L516 770ZM415 712C210 712 52 556 52 350C52 144 210-12 415-12C620-12 777 144 778 350C777 556 620 712 415 712ZM415 604C556 604 663 496 663 350C663 204 556 96 415 96C273 96 166 204 166 350C166 496 273 604 415 604Z"  horiz-adv-x="829" vert-adv-y="1000"  />

      
      <glyph glyph-name="unid6" unicode="&#xd6;" d="M300 939C262 939 233 911 233 874C233 837 262 809 300 809C339 809 367 837 367 874C367 911 339 939 300 939ZM527 939C488 939 459 911 459 874C459 837 488 809 527 809C566 809 595 837 595 874C595 911 566 939 527 939ZM415 712C210 712 52 556 52 350C52 144 210-12 415-12C620-12 777 144 778 350C777 556 620 712 415 712ZM415 604C556 604 663 496 663 350C663 204 556 96 415 96C273 96 166 204 166 350C166 496 273 604 415 604Z"  horiz-adv-x="829" vert-adv-y="1000"  />

      
      <glyph glyph-name="unid2" unicode="&#xd2;" d="M366 985L299 917L478 770L530 821ZM415 712C210 712 52 556 52 350C52 144 210-12 415-12C620-12 777 144 778 350C777 556 620 712 415 712ZM415 604C556 604 663 496 663 350C663 204 556 96 415 96C273 96 166 204 166 350C166 496 273 604 415 604Z"  horiz-adv-x="829" vert-adv-y="1000"  />

      
      <glyph glyph-name="uni0150" unicode="&#x0150;" d="M362 992L263 795L314 770L432 959ZM496 992L397 795L448 770L566 959ZM415 712C210 712 52 556 52 350C52 144 210-12 415-12C620-12 777 144 778 350C777 556 620 712 415 712ZM415 604C556 604 663 496 663 350C663 204 556 96 415 96C273 96 166 204 166 350C166 496 273 604 415 604Z"  horiz-adv-x="829" vert-adv-y="1000"  />

      
      <glyph glyph-name="uni014C" unicode="&#x014C;" d="M540 915L290 915L290 831L540 831ZM415 712C210 712 52 556 52 350C52 144 210-12 415-12C620-12 777 144 778 350C777 556 620 712 415 712ZM415 604C556 604 663 496 663 350C663 204 556 96 415 96C273 96 166 204 166 350C166 496 273 604 415 604Z"  horiz-adv-x="829" vert-adv-y="1000"  />

      
      <glyph glyph-name="unid8" unicode="&#xd8;" d="M616 654L654 735L539 735L521 697C488 707 452 712 415 712C210 712 52 556 52 350C52 220 115 109 213 46L175-35L289-35L307 3C341-7 377-12 415-12C620-12 777 144 778 350C777 481 714 591 616 654ZM166 350C166 496 273 604 415 604C435 604 455 602 474 597L261 147C203 193 166 265 166 350ZM415 96C394 96 374 98 354 103L568 553C626 508 663 436 663 350C663 204 556 96 415 96Z"  horiz-adv-x="829" vert-adv-y="1000"  />

      
      <glyph glyph-name="unid5" unicode="&#xd5;" d="M520 933C520 891 507 869 482 869C461 869 444 884 422 902C391 928 374 940 341 940C280 940 238 900 238 789L308 789C308 831 320 852 345 852C367 852 384 837 405 819C436 793 454 781 486 781C547 781 590 822 590 933ZM415 712C210 712 52 556 52 350C52 144 210-12 415-12C620-12 777 144 778 350C777 556 620 712 415 712ZM415 604C556 604 663 496 663 350C663 204 556 96 415 96C273 96 166 204 166 350C166 496 273 604 415 604Z"  horiz-adv-x="829" vert-adv-y="1000"  />

      
      <glyph glyph-name="uni0152" unicode="&#x0152;" d="M1121 592L1121 700L663 700L663 608C603 672 515 712 415 712C210 712 52 556 52 350C52 144 210-12 415-12C515-12 603 28 663 92L663 0L1121 0L1121 108L776 108L776 303L1095 303L1095 411L776 411L776 592ZM415 96C273 96 166 204 166 350C166 496 273 604 415 604C556 604 663 496 663 350C663 204 556 96 415 96Z"  horiz-adv-x="1162" vert-adv-y="1000"  />

      
      <glyph glyph-name="uni50" unicode="&#x50;" d="M369 700L82 700L82 0L195 0L195 237L369 237C522 237 615 333 615 470C615 608 522 700 369 700ZM365 345L195 345L195 592L365 592C457 592 500 540 500 469C500 398 457 345 365 345Z"  horiz-adv-x="666" vert-adv-y="1000"  />

      
      <glyph glyph-name="unide" unicode="&#xde;" d="M369 608L195 608L195 700L82 700L82 0L195 0L195 145L369 145C522 145 615 240 615 378C615 516 522 608 369 608ZM365 253L195 253L195 500L365 500C457 500 500 448 500 377C500 306 457 253 365 253Z"  horiz-adv-x="666" vert-adv-y="1000"  />

      
      <glyph glyph-name="uni51" unicode="&#x51;" d="M778 350C777 556 620 712 415 712C210 712 52 556 52 350C52 144 210-12 415-12C475-12 532 2 582 27L691-118L778-53L670 89C737 154 777 246 778 350ZM166 350C166 496 273 604 415 604C556 604 663 496 663 350C663 204 556 96 415 96C273 96 166 204 166 350Z"  horiz-adv-x="829" vert-adv-y="1000"  />

      
      <glyph glyph-name="uni52" unicode="&#x52;" d="M503 0L642 0L433 267C544 288 609 363 609 478C609 610 523 700 371 700L82 700L82 0L195 0L195 261L303 261ZM195 592L359 592C451 592 495 545 495 477C495 409 452 361 359 361L195 361Z"  horiz-adv-x="673" vert-adv-y="1000"  />

      
      <glyph glyph-name="uni0154" unicode="&#x0154;" d="M452 917L384 985L221 821L272 770ZM503 0L642 0L433 267C544 288 609 363 609 478C609 610 523 700 371 700L82 700L82 0L195 0L195 261L303 261ZM195 592L359 592C451 592 495 545 495 477C495 409 452 361 359 361L195 361Z"  horiz-adv-x="673" vert-adv-y="1000"  />

      
      <glyph glyph-name="uni0158" unicode="&#x0158;" d="M500 936L438 997L336 889L234 997L173 936L336 772ZM503 0L642 0L433 267C544 288 609 363 609 478C609 610 523 700 371 700L82 700L82 0L195 0L195 261L303 261ZM195 592L359 592C451 592 495 545 495 477C495 409 452 361 359 361L195 361Z"  horiz-adv-x="673" vert-adv-y="1000"  />

      
      <glyph glyph-name="uni0156" unicode="&#x0156;" d="M433 267C544 288 609 363 609 478C609 610 523 700 371 700L82 700L82 0L195 0L195 261L303 261L503 0L642 0ZM195 592L359 592C451 592 495 545 495 477C495 409 452 361 359 361L195 361ZM341-64C311-64 283-84 283-117C283-142 300-159 326-163L280-250L345-250C391-159 399-135 398-117C397-82 369-64 341-64Z"  horiz-adv-x="673" vert-adv-y="1000"  />

      
      <glyph glyph-name="uni53" unicode="&#x53;" d="M329 412C213 437 173 453 173 503C173 564 224 606 318 606C412 606 460 568 480 510L594 510C574 621 493 712 317 712C183 712 60 639 60 500C60 369 166 331 302 301C432 272 489 261 489 196C489 131 435 94 341 94C230 94 176 136 155 217L41 217C60 96 146-12 342-12C467-12 603 48 603 201C603 336 506 373 329 412Z"  horiz-adv-x="644" vert-adv-y="1000"  />

      
      <glyph glyph-name="uni015A" unicode="&#x015A;" d="M369 985L206 821L257 770L437 917ZM329 412C213 437 173 453 173 503C173 564 224 606 318 606C412 606 460 568 480 510L594 510C574 621 493 712 317 712C183 712 60 639 60 500C60 369 166 331 302 301C432 272 489 261 489 196C489 131 435 94 341 94C230 94 176 136 155 217L41 217C60 96 146-12 342-12C467-12 603 48 603 201C603 336 506 373 329 412Z"  horiz-adv-x="644" vert-adv-y="1000"  />

      
      <glyph glyph-name="uni0160" unicode="&#x0160;" d="M486 936L424 997L322 889L220 997L159 936L322 772ZM329 412C213 437 173 453 173 503C173 564 224 606 318 606C412 606 460 568 480 510L594 510C574 621 493 712 317 712C183 712 60 639 60 500C60 369 166 331 302 301C432 272 489 261 489 196C489 131 435 94 341 94C230 94 176 136 155 217L41 217C60 96 146-12 342-12C467-12 603 48 603 201C603 336 506 373 329 412Z"  horiz-adv-x="644" vert-adv-y="1000"  />

      
      <glyph glyph-name="uni015E" unicode="&#x015E;" d="M603 201C603 336 506 373 329 412C213 437 173 453 173 503C173 564 224 606 318 606C412 606 460 568 480 510L594 510C574 621 493 712 317 712C183 712 60 639 60 500C60 369 166 331 302 301C432 272 489 261 489 196C489 131 435 94 341 94C230 94 176 136 155 217L41 217C58 109 128 12 281-8L236-113C305-119 327-138 327-163C327-191 299-204 257-204C237-204 219-201 211-200L211-258C219-259 246-262 270-262C356-262 415-232 415-169C415-115 371-88 323-79L357-12C478-7 603 54 603 201Z"  horiz-adv-x="644" vert-adv-y="1000"  />

      
      <glyph glyph-name="uni54" unicode="&#x54;" d="M571 700L31 700L31 592L244 592L244 0L357 0L357 592L571 592Z"  horiz-adv-x="602" vert-adv-y="1000"  />

      
      <glyph glyph-name="uni0166" unicode="&#x0166;" d="M571 592L571 700L31 700L31 592L244 592L244 404L152 404L152 296L244 296L244 0L357 0L357 296L451 296L451 404L357 404L357 592Z"  horiz-adv-x="602" vert-adv-y="1000"  />

      
      <glyph glyph-name="uni0164" unicode="&#x0164;" d="M465 936L403 997L301 889L199 997L138 936L301 772ZM571 700L31 700L31 592L244 592L244 0L357 0L357 592L571 592Z"  horiz-adv-x="602" vert-adv-y="1000"  />

      
      <glyph glyph-name="uni0162" unicode="&#x0162;" d="M357 0L357 592L571 592L571 700L31 700L31 592L244 592L244 0L264 0L215-113C284-119 306-138 306-163C306-191 278-204 236-204C216-204 198-201 190-200L190-258C198-259 225-262 249-262C335-262 394-232 394-169C394-115 350-88 302-79L342 0Z"  horiz-adv-x="602" vert-adv-y="1000"  />

      
      <glyph glyph-name="uni55" unicode="&#x55;" d="M533 700L533 286C533 150 462 96 365 96C268 96 197 150 197 286L197 700L82 700L82 279C82 84 204-12 365-12C526-12 648 84 648 279L648 700Z"  horiz-adv-x="725" vert-adv-y="1000"  />

      
      <glyph glyph-name="unida" unicode="&#xda;" d="M410 985L247 821L298 770L478 917ZM533 700L533 286C533 150 462 96 365 96C268 96 197 150 197 286L197 700L82 700L82 279C82 84 204-12 365-12C526-12 648 84 648 279L648 700Z"  horiz-adv-x="725" vert-adv-y="1000"  />

      
      <glyph glyph-name="unidb" unicode="&#xdb;" d="M527 831L363 995L200 831L261 770L363 878L465 770ZM533 700L533 286C533 150 462 96 365 96C268 96 197 150 197 286L197 700L82 700L82 279C82 84 204-12 365-12C526-12 648 84 648 279L648 700Z"  horiz-adv-x="725" vert-adv-y="1000"  />

      
      <glyph glyph-name="unidc" unicode="&#xdc;" d="M249 939C211 939 182 911 182 874C182 837 211 809 249 809C288 809 316 837 316 874C316 911 288 939 249 939ZM476 939C437 939 408 911 408 874C408 837 437 809 476 809C515 809 544 837 544 874C544 911 515 939 476 939ZM533 700L533 286C533 150 462 96 365 96C268 96 197 150 197 286L197 700L82 700L82 279C82 84 204-12 365-12C526-12 648 84 648 279L648 700Z"  horiz-adv-x="725" vert-adv-y="1000"  />

      
      <glyph glyph-name="unid9" unicode="&#xd9;" d="M314 985L247 917L426 770L478 821ZM533 700L533 286C533 150 462 96 365 96C268 96 197 150 197 286L197 700L82 700L82 279C82 84 204-12 365-12C526-12 648 84 648 279L648 700Z"  horiz-adv-x="725" vert-adv-y="1000"  />

      
      <glyph glyph-name="uni0170" unicode="&#x0170;" d="M310 992L211 795L262 770L380 959ZM444 992L345 795L396 770L514 959ZM533 700L533 286C533 150 462 96 365 96C268 96 197 150 197 286L197 700L82 700L82 279C82 84 204-12 365-12C526-12 648 84 648 279L648 700Z"  horiz-adv-x="725" vert-adv-y="1000"  />

      
      <glyph glyph-name="uni016A" unicode="&#x016A;" d="M488 915L238 915L238 831L488 831ZM533 700L533 286C533 150 462 96 365 96C268 96 197 150 197 286L197 700L82 700L82 279C82 84 204-12 365-12C526-12 648 84 648 279L648 700Z"  horiz-adv-x="725" vert-adv-y="1000"  />

      
      <glyph glyph-name="uni0172" unicode="&#x0172;" d="M533 700L533 286C533 150 462 96 365 96C268 96 197 150 197 286L197 700L82 700L82 279C82 84 204-12 365-12L369-12C309-67 267-109 267-166C267-234 321-262 396-262C418-262 449-259 457-258L457-193C449-195 432-198 414-198C376-198 355-184 355-152C355-113 387-77 457 0C570 31 648 124 648 279L648 700Z"  horiz-adv-x="725" vert-adv-y="1000"  />

      
      <glyph glyph-name="uni016E" unicode="&#x016E;" d="M362 1022C292 1022 237 966 237 896C237 826 293 770 362 770C431 770 489 826 488 896C489 966 432 1022 362 1022ZM362 955C395 955 421 930 421 895C421 861 395 835 362 835C330 835 303 861 304 895C303 930 330 955 362 955ZM533 700L533 286C533 150 462 96 365 96C268 96 197 150 197 286L197 700L82 700L82 279C82 84 204-12 365-12C526-12 648 84 648 279L648 700Z"  horiz-adv-x="725" vert-adv-y="1000"  />

      
      <glyph glyph-name="uni56" unicode="&#x56;" d="M536 700L343 130L151 700L31 700L271 0L415 0L656 700Z"  horiz-adv-x="687" vert-adv-y="1000"  />

      
      <glyph glyph-name="uni57" unicode="&#x57;" d="M857 700L769 365L716 117L662 365L574 700L430 700L342 365L289 118L236 365L147 700L31 700L217 0L359 0L426 253L493 566L511 566L579 253L646 0L787 0L973 700Z"  horiz-adv-x="1004" vert-adv-y="1000"  />

      
      <glyph glyph-name="uni1E82" unicode="&#x1E82;" d="M618 917L550 985L387 821L438 770ZM857 700L769 365L716 117L662 365L574 700L430 700L342 365L289 118L236 365L147 700L31 700L217 0L359 0L426 253L493 566L511 566L579 253L646 0L787 0L973 700Z"  horiz-adv-x="1004" vert-adv-y="1000"  />

      
      <glyph glyph-name="uni0174" unicode="&#x0174;" d="M502 878L604 770L666 831L502 995L339 831L400 770ZM857 700L769 365L716 117L662 365L574 700L430 700L342 365L289 118L236 365L147 700L31 700L217 0L359 0L426 253L493 566L511 566L579 253L646 0L787 0L973 700Z"  horiz-adv-x="1004" vert-adv-y="1000"  />

      
      <glyph glyph-name="uni1E84" unicode="&#x1E84;" d="M388 809C427 809 455 837 455 874C455 911 427 939 388 939C350 939 321 911 321 874C321 837 350 809 388 809ZM615 809C654 809 683 837 683 874C683 911 654 939 615 939C576 939 547 911 547 874C547 837 576 809 615 809ZM857 700L769 365L716 117L662 365L574 700L430 700L342 365L289 118L236 365L147 700L31 700L217 0L359 0L426 253L493 566L511 566L579 253L646 0L787 0L973 700Z"  horiz-adv-x="1004" vert-adv-y="1000"  />

      
      <glyph glyph-name="uni1E80" unicode="&#x1E80;" d="M618 821L454 985L387 917L566 770ZM857 700L769 365L716 117L662 365L574 700L430 700L342 365L289 118L236 365L147 700L31 700L217 0L359 0L426 253L493 566L511 566L579 253L646 0L787 0L973 700Z"  horiz-adv-x="1004" vert-adv-y="1000"  />

      
      <glyph glyph-name="uni58" unicode="&#x58;" d="M627 0L400 354L620 700L486 700L331 450L176 700L41 700L259 361L31 0L165 0L328 266L493 0Z"  horiz-adv-x="658" vert-adv-y="1000"  />

      
      <glyph glyph-name="uni59" unicode="&#x59;" d="M650 700L523 700L341 366L159 700L31 700L284 239L284 0L397 0L398 241Z"  horiz-adv-x="681" vert-adv-y="1000"  />

      
      <glyph glyph-name="unidd" unicode="&#xdd;" d="M456 917L388 985L225 821L276 770ZM650 700L523 700L341 366L159 700L31 700L284 239L284 0L397 0L398 241Z"  horiz-adv-x="681" vert-adv-y="1000"  />

      
      <glyph glyph-name="uni0176" unicode="&#x0176;" d="M341 878L443 770L505 831L341 995L178 831L239 770ZM650 700L523 700L341 366L159 700L31 700L284 239L284 0L397 0L398 241Z"  horiz-adv-x="681" vert-adv-y="1000"  />

      
      <glyph glyph-name="uni0178" unicode="&#x0178;" d="M227 809C266 809 294 837 294 874C294 911 266 939 227 939C189 939 160 911 160 874C160 837 189 809 227 809ZM454 809C493 809 522 837 522 874C522 911 493 939 454 939C415 939 386 911 386 874C386 837 415 809 454 809ZM650 700L523 700L341 366L159 700L31 700L284 239L284 0L397 0L398 241Z"  horiz-adv-x="681" vert-adv-y="1000"  />

      
      <glyph glyph-name="uni1EF2" unicode="&#x1EF2;" d="M456 821L292 985L225 917L404 770ZM650 700L523 700L341 366L159 700L31 700L284 239L284 0L397 0L398 241Z"  horiz-adv-x="681" vert-adv-y="1000"  />

      
      <glyph glyph-name="uni5a" unicode="&#x5a;" d="M182 108L554 592L554 700L58 700L58 592L413 592L41 108L41 0L555 0L555 108Z"  horiz-adv-x="596" vert-adv-y="1000"  />

      
      <glyph glyph-name="uni0179" unicode="&#x0179;" d="M413 917L345 985L182 821L233 770ZM182 108L554 592L554 700L58 700L58 592L413 592L41 108L41 0L555 0L555 108Z"  horiz-adv-x="596" vert-adv-y="1000"  />

      
      <glyph glyph-name="uni017D" unicode="&#x017D;" d="M462 936L400 997L298 889L196 997L135 936L298 772ZM182 108L554 592L554 700L58 700L58 592L413 592L41 108L41 0L555 0L555 108Z"  horiz-adv-x="596" vert-adv-y="1000"  />

      
      <glyph glyph-name="uni017B" unicode="&#x017B;" d="M298 809C337 809 365 837 365 874C365 911 337 939 298 939C260 939 231 911 231 874C231 837 260 809 298 809ZM182 108L554 592L554 700L58 700L58 592L413 592L41 108L41 0L555 0L555 108Z"  horiz-adv-x="596" vert-adv-y="1000"  />

      
      <glyph glyph-name="uni61" unicode="&#x61;" d="M494 550L494 456C454 519 388 562 301 562C157 562 48 443 48 275C48 107 155-12 302-12C388-12 454 29 494 92L494 0L607 0L607 550ZM326 96C231 96 162 169 162 275C162 380 230 454 326 454C422 454 495 380 495 275C495 169 422 96 326 96Z"  horiz-adv-x="673" vert-adv-y="1000"  />

      
      <glyph glyph-name="unie1" unicode="&#xe1;" d="M458 772L390 840L227 677L278 625ZM494 550L494 456C454 519 388 562 301 562C157 562 48 443 48 275C48 107 155-12 302-12C388-12 454 29 494 92L494 0L607 0L607 550ZM326 96C231 96 162 169 162 275C162 380 230 454 326 454C422 454 495 380 495 275C495 169 422 96 326 96Z"  horiz-adv-x="673" vert-adv-y="1000"  />

      
      <glyph glyph-name="uni0103" unicode="&#x0103;" d="M343 633C430 633 506 691 506 788L506 811L416 811L416 792C416 747 387 719 343 719C298 719 269 747 269 792L269 811L179 811L179 788C179 691 255 633 343 633ZM494 550L494 456C454 519 388 562 301 562C157 562 48 443 48 275C48 107 155-12 302-12C388-12 454 29 494 92L494 0L607 0L607 550ZM326 96C231 96 162 169 162 275C162 380 230 454 326 454C422 454 495 380 495 275C495 169 422 96 326 96Z"  horiz-adv-x="673" vert-adv-y="1000"  />

      
      <glyph glyph-name="unie2" unicode="&#xe2;" d="M342 734L444 625L506 686L342 850L179 686L240 625ZM494 550L494 456C454 519 388 562 301 562C157 562 48 443 48 275C48 107 155-12 302-12C388-12 454 29 494 92L494 0L607 0L607 550ZM326 96C231 96 162 169 162 275C162 380 230 454 326 454C422 454 495 380 495 275C495 169 422 96 326 96Z"  horiz-adv-x="673" vert-adv-y="1000"  />

      
      <glyph glyph-name="unie4" unicode="&#xe4;" d="M229 664C268 664 296 691 296 729C296 766 268 793 229 793C191 793 162 766 162 729C162 691 191 664 229 664ZM456 664C495 664 524 691 524 729C524 766 495 793 456 793C417 793 388 766 388 729C388 691 417 664 456 664ZM494 550L494 456C454 519 388 562 301 562C157 562 48 443 48 275C48 107 155-12 302-12C388-12 454 29 494 92L494 0L607 0L607 550ZM326 96C231 96 162 169 162 275C162 380 230 454 326 454C422 454 495 380 495 275C495 169 422 96 326 96Z"  horiz-adv-x="673" vert-adv-y="1000"  />

      
      <glyph glyph-name="unie0" unicode="&#xe0;" d="M458 675L294 839L227 771L406 624ZM494 550L494 456C454 519 388 562 301 562C157 562 48 443 48 275C48 107 155-12 302-12C388-12 454 29 494 92L494 0L607 0L607 550ZM326 96C231 96 162 169 162 275C162 380 230 454 326 454C422 454 495 380 495 275C495 169 422 96 326 96Z"  horiz-adv-x="673" vert-adv-y="1000"  />

      
      <glyph glyph-name="uni0101" unicode="&#x0101;" d="M468 770L218 770L218 687L468 687ZM494 550L494 456C454 519 388 562 301 562C157 562 48 443 48 275C48 107 155-12 302-12C388-12 454 29 494 92L494 0L607 0L607 550ZM326 96C231 96 162 169 162 275C162 380 230 454 326 454C422 454 495 380 495 275C495 169 422 96 326 96Z"  horiz-adv-x="673" vert-adv-y="1000"  />

      
      <glyph glyph-name="uni0105" unicode="&#x0105;" d="M494 550L494 456C454 519 388 562 301 562C157 562 48 443 48 275C48 107 155-12 302-12C388-12 454 29 494 92L494 0L529 0C461-62 416-106 416-166C416-234 470-262 545-262C567-262 598-259 606-258L606-193C598-195 581-198 563-198C525-198 504-184 504-152C504-113 536-77 606 0L607 0L607 550ZM326 96C231 96 162 169 162 275C162 380 230 454 326 454C422 454 495 380 495 275C495 169 422 96 326 96Z"  horiz-adv-x="673" vert-adv-y="1000"  />

      
      <glyph glyph-name="unie5" unicode="&#xe5;" d="M342 625C411 625 469 682 468 751C469 821 412 877 342 877C272 877 217 821 217 751C217 682 273 625 342 625ZM342 811C375 811 401 785 401 751C401 716 375 691 342 691C310 691 283 716 284 751C283 785 310 811 342 811ZM494 550L494 456C454 519 388 562 301 562C157 562 48 443 48 275C48 107 155-12 302-12C388-12 454 29 494 92L494 0L607 0L607 550ZM326 96C231 96 162 169 162 275C162 380 230 454 326 454C422 454 495 380 495 275C495 169 422 96 326 96Z"  horiz-adv-x="673" vert-adv-y="1000"  />

      
      <glyph glyph-name="unie3" unicode="&#xe3;" d="M274 713C296 713 313 698 334 680C365 654 383 642 415 642C476 642 519 682 519 794L449 794C449 752 436 730 411 730C390 730 373 745 351 763C320 789 303 801 270 801C209 801 167 761 167 650L237 650C237 691 249 713 274 713ZM494 550L494 456C454 519 388 562 301 562C157 562 48 443 48 275C48 107 155-12 302-12C388-12 454 29 494 92L494 0L607 0L607 550ZM326 96C231 96 162 169 162 275C162 380 230 454 326 454C422 454 495 380 495 275C495 169 422 96 326 96Z"  horiz-adv-x="673" vert-adv-y="1000"  />

      
      <glyph glyph-name="unie6" unicode="&#xe6;" d="M779 562C704 562 638 536 589 494L590 550L495 550L495 455C454 519 388 562 302 562C157 562 48 443 48 275C48 107 156-13 302-13C388-13 454 28 494 90L494-1L589-1L589 56C638 13 704-12 781-12C898-12 1003 46 1046 169L929 169C903 115 848 87 782 87C690 87 619 143 610 244L1057 244C1068 425 956 562 779 562ZM779 464C862 464 919 411 936 336L616 336C635 410 693 464 779 464ZM326 96C231 96 162 169 162 275C162 380 231 454 326 454C422 454 495 380 495 275C495 168 422 96 326 96Z"  horiz-adv-x="1101" vert-adv-y="1000"  />

      
      <glyph glyph-name="uni62" unicode="&#x62;" d="M372 562C285 562 219 519 179 456L179 770L66 770L66 0L179 0L179 92C219 30 285-12 371-12C518-12 625 107 625 275C625 443 516 562 372 562ZM347 96C251 96 178 169 178 275C178 380 251 454 347 454C443 454 511 380 511 275C511 169 442 96 347 96Z"  horiz-adv-x="673" vert-adv-y="1000"  />

      
      <glyph glyph-name="uni63" unicode="&#x63;" d="M333-12C462-12 578 65 604 201L487 201C466 133 405 93 333 93C234 93 162 168 162 275C162 381 232 457 334 457C405 457 466 419 487 350L604 350C579 483 464 562 334 562C170 562 48 439 48 275C48 111 170-12 333-12Z"  horiz-adv-x="642" vert-adv-y="1000"  />

      
      <glyph glyph-name="uni0107" unicode="&#x0107;" d="M371 840L208 677L259 625L439 772ZM333-12C462-12 578 65 604 201L487 201C466 133 405 93 333 93C234 93 162 168 162 275C162 381 232 457 334 457C405 457 466 419 487 350L604 350C579 483 464 562 334 562C170 562 48 439 48 275C48 111 170-12 333-12Z"  horiz-adv-x="642" vert-adv-y="1000"  />

      
      <glyph glyph-name="uni010D" unicode="&#x010D;" d="M487 789L425 850L323 742L221 850L160 789L323 625ZM333-12C462-12 578 65 604 201L487 201C466 133 405 93 333 93C234 93 162 168 162 275C162 381 232 457 334 457C405 457 466 419 487 350L604 350C579 483 464 562 334 562C170 562 48 439 48 275C48 111 170-12 333-12Z"  horiz-adv-x="642" vert-adv-y="1000"  />

      
      <glyph glyph-name="unie7" unicode="&#xe7;" d="M333 93C234 93 162 168 162 275C162 381 232 457 334 457C405 457 466 419 487 350L604 350C579 483 464 562 334 562C170 562 48 439 48 275C48 129 145 15 283-8L237-113C306-119 328-138 328-163C328-191 300-204 258-204C238-204 220-201 212-200L212-258C220-259 247-262 271-262C357-262 416-232 416-169C416-115 372-88 324-79L359-11C477-1 580 74 604 201L487 201C466 133 405 93 333 93Z"  horiz-adv-x="642" vert-adv-y="1000"  />

      
      <glyph glyph-name="uni64" unicode="&#x64;" d="M501 770L501 456C460 519 394 562 307 562C163 562 54 443 54 275C54 107 161-12 308-12C394-12 460 30 501 92L501 0L614 0L614 770ZM332 96C237 96 168 169 168 275C168 380 236 454 332 454C428 454 501 380 501 275C501 169 428 96 332 96Z"  horiz-adv-x="679" vert-adv-y="1000"  />

      
      <glyph glyph-name="unif0" unicode="&#xf0;" d="M614 690L540 773L461 705C379 763 269 782 141 782L141 675C355 675 472 622 496 427C455 500 378 537 296 537C156 537 48 432 48 272C48 101 170-12 327-12C480-12 612 93 614 324C614 459 587 557 540 626ZM331 86C236 86 161 156 161 266C161 371 231 440 326 440C419 440 499 372 499 266C499 156 427 86 331 86Z"  horiz-adv-x="661" vert-adv-y="1000"  />

      
      <glyph glyph-name="uni010F" unicode="&#x010F;" d="M800 733C799 768 770 786 742 786C713 786 685 766 685 733C685 708 702 691 728 687L682 600L746 600C793 691 800 715 800 733ZM501 456C460 519 394 562 307 562C163 562 54 443 54 275C54 107 161-12 308-12C394-12 460 30 501 92L501 0L614 0L614 770L501 770ZM332 96C237 96 168 169 168 275C168 380 236 454 332 454C428 454 501 380 501 275C501 169 428 96 332 96Z"  horiz-adv-x="679" vert-adv-y="1000"  />

      
      <glyph glyph-name="uni0111" unicode="&#x0111;" d="M663 718L614 718L614 770L501 770L501 718L364 718L364 610L501 610L501 456C460 519 394 562 307 562C163 562 54 443 54 275C54 107 161-12 308-12C394-12 460 30 501 92L501 0L614 0L614 610L663 610ZM332 96C237 96 168 169 168 275C168 380 236 454 332 454C428 454 501 380 501 275C501 169 428 96 332 96Z"  horiz-adv-x="679" vert-adv-y="1000"  />

      
      <glyph glyph-name="uni65" unicode="&#x65;" d="M332 562C166 562 48 440 48 274C48 108 167-12 334-12C451-12 556 46 599 169L482 169C456 115 401 87 335 87C243 87 172 143 163 244L610 244C621 425 509 562 332 562ZM332 464C415 464 472 411 489 336L169 336C188 410 246 464 332 464Z"  horiz-adv-x="654" vert-adv-y="1000"  />

      
      <glyph glyph-name="unie9" unicode="&#xe9;" d="M442 772L374 840L211 677L262 625ZM332 562C166 562 48 440 48 274C48 108 167-12 334-12C451-12 556 46 599 169L482 169C456 115 401 87 335 87C243 87 172 143 163 244L610 244C621 425 509 562 332 562ZM332 464C415 464 472 411 489 336L169 336C188 410 246 464 332 464Z"  horiz-adv-x="654" vert-adv-y="1000"  />

      
      <glyph glyph-name="uni011B" unicode="&#x011B;" d="M490 789L428 850L326 742L224 850L163 789L326 625ZM332 562C166 562 48 440 48 274C48 108 167-12 334-12C451-12 556 46 599 169L482 169C456 115 401 87 335 87C243 87 172 143 163 244L610 244C621 425 509 562 332 562ZM332 464C415 464 472 411 489 336L169 336C188 410 246 464 332 464Z"  horiz-adv-x="654" vert-adv-y="1000"  />

      
      <glyph glyph-name="uniea" unicode="&#xea;" d="M326 734L428 625L490 686L326 850L163 686L224 625ZM332 562C166 562 48 440 48 274C48 108 167-12 334-12C451-12 556 46 599 169L482 169C456 115 401 87 335 87C243 87 172 143 163 244L610 244C621 425 509 562 332 562ZM332 464C415 464 472 411 489 336L169 336C188 410 246 464 332 464Z"  horiz-adv-x="654" vert-adv-y="1000"  />

      
      <glyph glyph-name="unieb" unicode="&#xeb;" d="M212 664C251 664 279 691 279 729C279 766 251 793 212 793C174 793 145 766 145 729C145 691 174 664 212 664ZM439 664C478 664 507 691 507 729C507 766 478 793 439 793C400 793 371 766 371 729C371 691 400 664 439 664ZM332 562C166 562 48 440 48 274C48 108 167-12 334-12C451-12 556 46 599 169L482 169C456 115 401 87 335 87C243 87 172 143 163 244L610 244C621 425 509 562 332 562ZM332 464C415 464 472 411 489 336L169 336C188 410 246 464 332 464Z"  horiz-adv-x="654" vert-adv-y="1000"  />

      
      <glyph glyph-name="uni0117" unicode="&#x0117;" d="M326 658C369 658 400 688 400 729C400 769 369 798 326 798C285 798 253 769 253 729C253 688 285 658 326 658ZM332 562C166 562 48 440 48 274C48 108 167-12 334-12C451-12 556 46 599 169L482 169C456 115 401 87 335 87C243 87 172 143 163 244L610 244C621 425 509 562 332 562ZM332 464C415 464 472 411 489 336L169 336C188 410 246 464 332 464Z"  horiz-adv-x="654" vert-adv-y="1000"  />

      
      <glyph glyph-name="unie8" unicode="&#xe8;" d="M442 675L278 839L211 771L390 624ZM332 562C166 562 48 440 48 274C48 108 167-12 334-12C451-12 556 46 599 169L482 169C456 115 401 87 335 87C243 87 172 143 163 244L610 244C621 425 509 562 332 562ZM332 464C415 464 472 411 489 336L169 336C188 410 246 464 332 464Z"  horiz-adv-x="654" vert-adv-y="1000"  />

      
      <glyph glyph-name="uni0113" unicode="&#x0113;" d="M451 770L201 770L201 687L451 687ZM332 562C166 562 48 440 48 274C48 108 167-12 334-12C451-12 556 46 599 169L482 169C456 115 401 87 335 87C243 87 172 143 163 244L610 244C621 425 509 562 332 562ZM332 464C415 464 472 411 489 336L169 336C188 410 246 464 332 464Z"  horiz-adv-x="654" vert-adv-y="1000"  />

      
      <glyph glyph-name="uni0119" unicode="&#x0119;" d="M332 562C166 562 48 440 48 274C48 108 167-12 334-12L334-11C274-68 234-109 234-166C234-234 288-262 363-262C385-262 416-259 424-258L424-193C416-195 399-198 381-198C343-198 322-184 322-152C322-113 354-77 424 0L421 0C501 22 567 77 599 169L482 169C456 115 401 87 335 87C243 87 172 143 163 244L610 244C621 425 509 562 332 562ZM332 464C415 464 472 411 489 336L169 336C188 410 246 464 332 464Z"  horiz-adv-x="654" vert-adv-y="1000"  />

      
      <glyph glyph-name="uni66" unicode="&#x66;" d="M353 682C376 682 402 678 428 670L444 665L464 758C430 773 382 782 340 782C222 782 126 708 126 558L126 550L24 550L24 444L126 444L126 0L239 0L239 444L442 444L442 550L239 550L239 553C239 637 274 682 353 682Z"  horiz-adv-x="482" vert-adv-y="1000"  />

      
      <glyph glyph-name="uni67" unicode="&#x67;" d="M494 550L494 456C454 519 387 562 302 562C157 562 48 443 48 278C48 113 155-6 302-6C387-6 453 36 494 97L494 3C494-104 439-161 338-161C264-161 203-128 184-57L67-57C91-194 210-262 341-262C504-262 607-157 607 7L607 550ZM326 102C231 102 162 175 162 278C162 380 230 454 326 454C422 454 495 380 495 278C495 175 422 102 326 102Z"  horiz-adv-x="673" vert-adv-y="1000"  />

      
      <glyph glyph-name="uni0123" unicode="&#x0123;" d="M334 625C364 625 392 645 392 678C392 704 374 721 348 725L394 812L330 812C284 720 276 696 277 678C277 644 306 625 334 625ZM494 550L494 456C454 519 387 562 302 562C157 562 48 443 48 278C48 113 155-6 302-6C387-6 453 36 494 97L494 3C494-104 439-161 338-161C264-161 203-128 184-57L67-57C91-194 210-262 341-262C504-262 607-157 607 7L607 550ZM326 102C231 102 162 175 162 278C162 380 230 454 326 454C422 454 495 380 495 278C495 175 422 102 326 102Z"  horiz-adv-x="673" vert-adv-y="1000"  />

      
      <glyph glyph-name="uni68" unicode="&#x68;" d="M368 562C283 562 223 524 184 460L184 770L71 770L71 0L184 0L184 285C184 391 236 454 332 454C415 454 453 409 453 324L453 0L566 0L566 347C566 481 491 562 368 562Z"  horiz-adv-x="626" vert-adv-y="1000"  />

      
      <glyph glyph-name="uni69" unicode="&#x69;" d="M122 798C81 798 49 769 49 729C49 688 81 658 122 658C165 658 196 688 196 729C196 769 165 798 122 798ZM66 0L179 0L179 550L66 550Z"  horiz-adv-x="244" vert-adv-y="1000"  />

      
      <glyph glyph-name="uni0131" unicode="&#x0131;" d="M66 0L179 0L179 550L66 550Z"  horiz-adv-x="244" vert-adv-y="1000"  />

      
      <glyph glyph-name="unied" unicode="&#xed;" d="M169 840L6 677L57 625L237 772ZM66 0L179 0L179 550L66 550Z"  horiz-adv-x="244" vert-adv-y="1000"  />

      
      <glyph glyph-name="uniee" unicode="&#xee;" d="M286 686L122 850L-41 686L20 625L122 734L224 625ZM66 0L179 0L179 550L66 550Z"  horiz-adv-x="244" vert-adv-y="1000"  />

      
      <glyph glyph-name="unief" unicode="&#xef;" d="M8 793C-30 793-59 766-59 729C-59 691-30 664 8 664C47 664 75 691 75 729C75 766 47 793 8 793ZM235 793C196 793 167 766 167 729C167 691 196 664 235 664C274 664 303 691 303 729C303 766 274 793 235 793ZM66 0L179 0L179 550L66 550Z"  horiz-adv-x="244" vert-adv-y="1000"  />

      
      <glyph glyph-name="uniec" unicode="&#xec;" d="M73 839L6 771L185 624L237 675ZM66 0L179 0L179 550L66 550Z"  horiz-adv-x="244" vert-adv-y="1000"  />

      
      <glyph glyph-name="uni012B" unicode="&#x012B;" d="M247 770L-3 770L-3 687L247 687ZM66 0L179 0L179 550L66 550Z"  horiz-adv-x="244" vert-adv-y="1000"  />

      
      <glyph glyph-name="uni012F" unicode="&#x012F;" d="M122 658C165 658 196 688 196 729C196 769 165 798 122 798C81 798 49 769 49 729C49 688 81 658 122 658ZM66 0L101 0C33-62-12-106-12-166C-12-234 42-262 117-262C139-262 170-259 178-258L178-193C170-195 153-198 135-198C97-198 76-184 76-152C76-113 108-77 178 0L179 0L179 550L66 550Z"  horiz-adv-x="244" vert-adv-y="1000"  />

      
      <glyph glyph-name="uni6a" unicode="&#x6a;" d="M122 798C81 798 49 769 49 729C49 688 81 658 122 658C165 658 196 688 196 729C196 769 165 798 122 798ZM66-250L179-250L179 550L66 550Z"  horiz-adv-x="244" vert-adv-y="1000"  />

      
      <glyph glyph-name="uni0237" unicode="&#x0237;" d="M66-250L179-250L179 550L66 550Z"  horiz-adv-x="244" vert-adv-y="1000"  />

      
      <glyph glyph-name="uni6b" unicode="&#x6b;" d="M589 0L298 289L567 550L422 550L184 312L184 770L71 770L71 0L184 0L184 254L443 0Z"  horiz-adv-x="613" vert-adv-y="1000"  />

      
      <glyph glyph-name="uni0137" unicode="&#x0137;" d="M298 289L567 550L422 550L184 312L184 770L71 770L71 0L184 0L184 254L443 0L589 0ZM310-64C280-64 252-84 252-117C252-142 269-159 295-163L249-250L314-250C360-159 368-135 367-117C366-82 338-64 310-64Z"  horiz-adv-x="613" vert-adv-y="1000"  />

      
      <glyph glyph-name="uni6c" unicode="&#x6c;" d="M67 0L181 0L181 770L67 770Z"  horiz-adv-x="244" vert-adv-y="1000"  />

      
      <glyph glyph-name="uni013A" unicode="&#x013A;" d="M168 1055L5 891L56 840L236 987ZM67 0L181 0L181 770L67 770Z"  horiz-adv-x="244" vert-adv-y="1000"  />

      
      <glyph glyph-name="uni013E" unicode="&#x013E;" d="M367 733C366 768 338 786 310 786C280 786 252 766 252 733C252 708 269 691 296 687L249 600L314 600C360 691 368 715 367 733ZM67 0L181 0L181 770L67 770Z"  horiz-adv-x="241" vert-adv-y="1000"  />

      
      <glyph glyph-name="uni013C" unicode="&#x013C;" d="M181 770L67 770L67 0L181 0ZM182-117C181-82 153-64 125-64C95-64 67-84 67-117C67-142 84-159 110-163L64-250L129-250C175-159 183-135 182-117Z"  horiz-adv-x="244" vert-adv-y="1000"  />

      
      <glyph glyph-name="uni0142" unicode="&#x0142;" d="M261 422L181 402L181 770L67 770L67 374L-17 353L-17 245L67 266L67 0L181 0L181 294L261 314Z"  horiz-adv-x="241" vert-adv-y="1000"  />

      
      <glyph glyph-name="uni6d" unicode="&#x6d;" d="M706 562C619 562 557 518 520 447C493 521 434 562 350 562C271 562 217 525 179 462L179 550L66 550L66 0L179 0L179 285C179 385 224 454 313 454C389 454 422 411 422 329L422 0L536 0L535 285C535 385 581 454 670 454C746 454 779 411 779 329L779 0L892 0L892 353C892 484 822 562 706 562Z"  horiz-adv-x="953" vert-adv-y="1000"  />

      
      <glyph glyph-name="uni6e" unicode="&#x6e;" d="M363 562C277 562 218 523 179 459L179 550L66 550L66 0L179 0L179 285C179 391 231 454 328 454C411 454 448 409 448 324L448 0L561 0L561 347C561 481 487 562 363 562Z"  horiz-adv-x="622" vert-adv-y="1000"  />

      
      <glyph glyph-name="uni0144" unicode="&#x0144;" d="M426 772L358 840L195 677L246 625ZM363 562C277 562 218 523 179 459L179 550L66 550L66 0L179 0L179 285C179 391 231 454 328 454C411 454 448 409 448 324L448 0L561 0L561 347C561 481 487 562 363 562Z"  horiz-adv-x="622" vert-adv-y="1000"  />

      
      <glyph glyph-name="uni0148" unicode="&#x0148;" d="M475 789L413 850L311 742L209 850L148 789L311 625ZM363 562C277 562 218 523 179 459L179 550L66 550L66 0L179 0L179 285C179 391 231 454 328 454C411 454 448 409 448 324L448 0L561 0L561 347C561 481 487 562 363 562Z"  horiz-adv-x="622" vert-adv-y="1000"  />

      
      <glyph glyph-name="uni0146" unicode="&#x0146;" d="M363 562C277 562 218 523 179 459L179 550L66 550L66 0L179 0L179 285C179 391 231 454 328 454C411 454 448 409 448 324L448 0L561 0L561 347C561 481 487 562 363 562ZM315-64C285-64 257-84 257-117C257-142 274-159 300-163L254-250L319-250C365-159 373-135 372-117C371-82 343-64 315-64Z"  horiz-adv-x="622" vert-adv-y="1000"  />

      
      <glyph glyph-name="uni014B" unicode="&#x014B;" d="M363 562C277 562 218 523 179 459L179 550L66 550L66 0L179 0L179 285C179 391 231 454 328 454C411 454 448 409 448 324L448 149L448-33C448-113 411-157 340-157C305-157 266-145 223-130L203-222C233-240 297-262 359-262C473-262 561-191 561-39L561 0L561 347C561 481 487 562 363 562Z"  horiz-adv-x="622" vert-adv-y="1000"  />

      
      <glyph glyph-name="unif1" unicode="&#xf1;" d="M242 713C264 713 281 698 302 680C333 654 351 642 383 642C444 642 487 682 487 794L417 794C417 752 404 730 379 730C358 730 341 745 319 763C288 789 271 801 238 801C177 801 135 761 135 650L205 650C205 691 217 713 242 713ZM363 562C277 562 218 523 179 459L179 550L66 550L66 0L179 0L179 285C179 391 231 454 328 454C411 454 448 409 448 324L448 0L561 0L561 347C561 481 487 562 363 562Z"  horiz-adv-x="622" vert-adv-y="1000"  />

      
      <glyph glyph-name="uni6f" unicode="&#x6f;" d="M333 562C176 562 48 441 48 275C48 111 174-12 333-12C493-12 618 110 618 275C618 441 491 562 333 562ZM333 454C428 454 504 381 504 275C504 169 429 96 333 96C237 96 162 169 162 275C162 381 238 454 333 454Z"  horiz-adv-x="665" vert-adv-y="1000"  />

      
      <glyph glyph-name="unif3" unicode="&#xf3;" d="M380 840L217 677L268 625L448 772ZM333 562C176 562 48 441 48 275C48 111 174-12 333-12C493-12 618 110 618 275C618 441 491 562 333 562ZM333 454C428 454 504 381 504 275C504 169 429 96 333 96C237 96 162 169 162 275C162 381 238 454 333 454Z"  horiz-adv-x="665" vert-adv-y="1000"  />

      
      <glyph glyph-name="unif4" unicode="&#xf4;" d="M496 686L332 850L169 686L230 625L332 734L434 625ZM333 562C176 562 48 441 48 275C48 111 174-12 333-12C493-12 618 110 618 275C618 441 491 562 333 562ZM333 454C428 454 504 381 504 275C504 169 429 96 333 96C237 96 162 169 162 275C162 381 238 454 333 454Z"  horiz-adv-x="665" vert-adv-y="1000"  />

      
      <glyph glyph-name="unif6" unicode="&#xf6;" d="M218 793C180 793 151 766 151 729C151 691 180 664 218 664C257 664 285 691 285 729C285 766 257 793 218 793ZM445 793C406 793 377 766 377 729C377 691 406 664 445 664C484 664 513 691 513 729C513 766 484 793 445 793ZM333 562C176 562 48 441 48 275C48 111 174-12 333-12C493-12 618 110 618 275C618 441 491 562 333 562ZM333 454C428 454 504 381 504 275C504 169 429 96 333 96C237 96 162 169 162 275C162 381 238 454 333 454Z"  horiz-adv-x="665" vert-adv-y="1000"  />

      
      <glyph glyph-name="unif2" unicode="&#xf2;" d="M284 839L217 771L396 624L448 675ZM333 562C176 562 48 441 48 275C48 111 174-12 333-12C493-12 618 110 618 275C618 441 491 562 333 562ZM333 454C428 454 504 381 504 275C504 169 429 96 333 96C237 96 162 169 162 275C162 381 238 454 333 454Z"  horiz-adv-x="665" vert-adv-y="1000"  />

      
      <glyph glyph-name="uni0151" unicode="&#x0151;" d="M280 848L181 650L232 625L350 814ZM414 848L315 650L366 625L484 814ZM333 562C176 562 48 441 48 275C48 111 174-12 333-12C493-12 618 110 618 275C618 441 491 562 333 562ZM333 454C428 454 504 381 504 275C504 169 429 96 333 96C237 96 162 169 162 275C162 381 238 454 333 454Z"  horiz-adv-x="665" vert-adv-y="1000"  />

      
      <glyph glyph-name="uni014D" unicode="&#x014D;" d="M457 770L207 770L207 687L457 687ZM333 562C176 562 48 441 48 275C48 111 174-12 333-12C493-12 618 110 618 275C618 441 491 562 333 562ZM333 454C428 454 504 381 504 275C504 169 429 96 333 96C237 96 162 169 162 275C162 381 238 454 333 454Z"  horiz-adv-x="665" vert-adv-y="1000"  />

      
      <glyph glyph-name="unif8" unicode="&#xf8;" d="M527 487L572 550L486 550L470 528C429 549 382 562 333 562C176 562 48 441 48 275C48 189 82 114 138 63L93 0L178 0L194 23C235 1 282-12 333-12C493-12 618 110 618 275C618 362 583 436 527 487ZM162 275C162 381 238 454 333 454C359 454 384 448 406 438L203 155C178 185 162 227 162 275ZM333 96C306 96 281 102 258 112L461 396C488 365 504 323 504 275C504 169 429 96 333 96Z"  horiz-adv-x="665" vert-adv-y="1000"  />

      
      <glyph glyph-name="unif5" unicode="&#xf5;" d="M438 794C438 752 425 730 400 730C379 730 362 745 340 763C309 789 292 801 259 801C198 801 156 761 156 650L226 650C226 691 238 713 263 713C285 713 302 698 323 680C354 654 372 642 404 642C465 642 508 682 508 794ZM333 562C176 562 48 441 48 275C48 111 174-12 333-12C493-12 618 110 618 275C618 441 491 562 333 562ZM333 454C428 454 504 381 504 275C504 169 429 96 333 96C237 96 162 169 162 275C162 381 238 454 333 454Z"  horiz-adv-x="665" vert-adv-y="1000"  />

      
      <glyph glyph-name="uni0153" unicode="&#x0153;" d="M788 562C689 562 607 518 557 448C508 518 426 562 333 562C176 562 48 440 48 275C48 110 174-13 333-13C427-13 508 31 557 100C607 31 690-12 790-12C906-12 1011 46 1055 169L938 169C912 115 856 87 791 87C699 87 628 143 619 244L1066 244C1076 425 964 562 788 562ZM787 464C871 464 928 411 945 336L625 336C643 410 701 464 787 464ZM333 96C237 96 162 169 162 275C162 380 238 454 333 454C428 454 504 380 504 275C504 168 429 96 333 96Z"  horiz-adv-x="1110" vert-adv-y="1000"  />

      
      <glyph glyph-name="uni70" unicode="&#x70;" d="M377 562C290 562 224 519 184 456L184 550L71 550L71-250L184-250L184 92C224 30 290-12 376-12C523-12 630 107 630 275C630 443 521 562 377 562ZM352 96C256 96 183 169 183 275C183 380 256 454 352 454C448 454 516 380 516 275C516 169 447 96 352 96Z"  horiz-adv-x="678" vert-adv-y="1000"  />

      
      <glyph glyph-name="unife" unicode="&#xfe;" d="M377 562C290 562 224 519 184 456L184 770L71 770L71-250L184-250L184 92C224 30 290-12 376-12C523-12 630 107 630 275C630 443 521 562 377 562ZM352 96C256 96 183 169 183 275C183 380 256 454 352 454C448 454 516 380 516 275C516 169 447 96 352 96Z"  horiz-adv-x="678" vert-adv-y="1000"  />

      
      <glyph glyph-name="uni71" unicode="&#x71;" d="M494 550L494 456C454 519 388 562 301 562C157 562 48 443 48 275C48 107 155-12 302-12C388-12 454 30 494 92L494-250L607-250L607 550ZM326 96C231 96 162 169 162 275C162 380 230 454 326 454C422 454 495 380 495 275C495 169 422 96 326 96Z"  horiz-adv-x="673" vert-adv-y="1000"  />

      
      <glyph glyph-name="uni72" unicode="&#x72;" d="M362 562C275 562 212 518 179 441L179 550L66 550L66 0L179 0L179 252C179 388 258 446 361 446C376 446 385 445 395 444L395 559C387 561 376 562 362 562Z"  horiz-adv-x="419" vert-adv-y="1000"  />

      
      <glyph glyph-name="uni0155" unicode="&#x0155;" d="M325 772L257 840L94 677L145 625ZM362 562C275 562 212 518 179 441L179 550L66 550L66 0L179 0L179 252C179 388 258 446 361 446C376 446 385 445 395 444L395 559C387 561 376 562 362 562Z"  horiz-adv-x="419" vert-adv-y="1000"  />

      
      <glyph glyph-name="uni0159" unicode="&#x0159;" d="M374 789L312 850L210 742L108 850L47 789L210 625ZM362 562C275 562 212 518 179 441L179 550L66 550L66 0L179 0L179 252C179 388 258 446 361 446C376 446 385 445 395 444L395 559C387 561 376 562 362 562Z"  horiz-adv-x="419" vert-adv-y="1000"  />

      
      <glyph glyph-name="uni0157" unicode="&#x0157;" d="M362 562C275 562 212 518 179 441L179 550L66 550L66 0L179 0L179 252C179 388 258 446 361 446C376 446 385 445 395 444L395 559C387 561 376 562 362 562ZM214-64C184-64 156-84 156-117C156-142 173-159 199-163L153-250L218-250C264-159 272-135 271-117C270-82 242-64 214-64Z"  horiz-adv-x="419" vert-adv-y="1000"  />

      
      <glyph glyph-name="uni73" unicode="&#x73;" d="M309-12C439-12 545 46 545 164C545 271 459 297 310 332C214 355 180 364 180 399C180 437 223 462 296 462C366 462 408 440 424 395L538 395C518 495 439 562 298 562C160 562 66 498 66 387C66 295 131 264 285 226C377 204 429 197 429 151C429 110 384 88 311 88C216 88 171 116 154 177L39 177C60 58 164-12 309-12Z"  horiz-adv-x="584" vert-adv-y="1000"  />

      
      <glyph glyph-name="uni015B" unicode="&#x015B;" d="M340 840L177 677L228 625L408 772ZM309-12C439-12 545 46 545 164C545 271 459 297 310 332C214 355 180 364 180 399C180 437 223 462 296 462C366 462 408 440 424 395L538 395C518 495 439 562 298 562C160 562 66 498 66 387C66 295 131 264 285 226C377 204 429 197 429 151C429 110 384 88 311 88C216 88 171 116 154 177L39 177C60 58 164-12 309-12Z"  horiz-adv-x="584" vert-adv-y="1000"  />

      
      <glyph glyph-name="uni0161" unicode="&#x0161;" d="M457 789L395 850L293 742L191 850L130 789L293 625ZM309-12C439-12 545 46 545 164C545 271 459 297 310 332C214 355 180 364 180 399C180 437 223 462 296 462C366 462 408 440 424 395L538 395C518 495 439 562 298 562C160 562 66 498 66 387C66 295 131 264 285 226C377 204 429 197 429 151C429 110 384 88 311 88C216 88 171 116 154 177L39 177C60 58 164-12 309-12Z"  horiz-adv-x="584" vert-adv-y="1000"  />

      
      <glyph glyph-name="uni015F" unicode="&#x015F;" d="M545 164C545 271 459 297 310 332C214 355 180 364 180 399C180 437 223 462 296 462C366 462 408 440 424 395L538 395C518 495 439 562 298 562C160 562 66 498 66 387C66 295 131 264 285 226C377 204 429 197 429 151C429 110 384 88 311 88C216 88 171 116 154 177L39 177C57 74 137 8 253-8L207-113C276-119 298-138 298-163C298-191 270-204 228-204C208-204 190-201 182-200L182-258C190-259 217-262 241-262C327-262 386-232 386-169C386-115 342-88 294-79L328-11C449-6 545 52 545 164Z"  horiz-adv-x="584" vert-adv-y="1000"  />

      
      <glyph glyph-name="unidf" unicode="&#xdf;" d="M461 403C521 432 559 489 559 565C559 683 469 782 314 782C162 782 66 687 66 532L66 0L179 0L179 530C179 621 227 674 314 674C404 674 445 617 445 553C445 484 399 440 329 440L260 440L260 332L344 332C433 332 479 285 479 214C479 138 427 96 348 96C317 96 279 104 249 115L226 11C264-4 327-12 367-12C492-12 593 65 593 206C593 301 546 378 461 403Z"  horiz-adv-x="632" vert-adv-y="1000"  />

      
      <glyph glyph-name="uni74" unicode="&#x74;" d="M464 120C421 105 382 93 347 93C276 93 239 137 239 217L239 444L465 444L465 550L239 550L239 700L126 675L126 550L24 550L24 444L126 444L126 211C126 59 214-12 327-12C390-12 454 10 484 28Z"  horiz-adv-x="521" vert-adv-y="1000"  />

      
      <glyph glyph-name="uni0167" unicode="&#x0167;" d="M464 120C421 105 382 93 347 93C276 93 239 137 239 217L239 221L323 221L323 329L239 329L239 444L465 444L465 550L239 550L239 700L126 675L126 550L24 550L24 444L126 444L126 329L24 329L24 221L126 221L126 211C126 59 214-12 327-12C390-12 454 10 484 28Z"  horiz-adv-x="521" vert-adv-y="1000"  />

      
      <glyph glyph-name="uni0165" unicode="&#x0165;" d="M394 600C441 691 448 715 448 733C447 768 418 786 390 786C361 786 333 766 333 733C333 708 350 691 376 687L330 600ZM464 120C421 105 382 93 347 93C276 93 239 137 239 217L239 444L465 444L465 550L239 550L239 700L126 675L126 550L24 550L24 444L126 444L126 211C126 59 214-12 327-12C390-12 454 10 484 28Z"  horiz-adv-x="528" vert-adv-y="1000"  />

      
      <glyph glyph-name="uni0163" unicode="&#x0163;" d="M329-79L364-10C414-3 460 13 484 28L464 120C421 105 382 93 347 93C276 93 239 137 239 217L239 444L465 444L465 550L239 550L239 700L126 675L126 550L24 550L24 444L126 444L126 211C126 78 194 7 287-9L242-113C311-119 333-138 333-163C333-191 305-204 263-204C243-204 225-201 217-200L217-258C225-259 252-262 276-262C362-262 421-232 421-169C421-115 377-88 329-79Z"  horiz-adv-x="521" vert-adv-y="1000"  />

      
      <glyph glyph-name="uni75" unicode="&#x75;" d="M439 550L439 265C439 159 386 96 292 96C210 96 174 141 174 226L174 550L61 550L61 203C61 69 134-12 256-12C341-12 400 28 439 91L439 0L552 0L552 550Z"  horiz-adv-x="616" vert-adv-y="1000"  />

      
      <glyph glyph-name="unifa" unicode="&#xfa;" d="M421 772L353 840L190 677L241 625ZM439 550L439 265C439 159 386 96 292 96C210 96 174 141 174 226L174 550L61 550L61 203C61 69 134-12 256-12C341-12 400 28 439 91L439 0L552 0L552 550Z"  horiz-adv-x="616" vert-adv-y="1000"  />

      
      <glyph glyph-name="unifb" unicode="&#xfb;" d="M306 734L408 625L470 686L306 850L143 686L204 625ZM439 550L439 265C439 159 386 96 292 96C210 96 174 141 174 226L174 550L61 550L61 203C61 69 134-12 256-12C341-12 400 28 439 91L439 0L552 0L552 550Z"  horiz-adv-x="616" vert-adv-y="1000"  />

      
      <glyph glyph-name="unifc" unicode="&#xfc;" d="M192 664C231 664 259 691 259 729C259 766 231 793 192 793C154 793 125 766 125 729C125 691 154 664 192 664ZM419 664C458 664 487 691 487 729C487 766 458 793 419 793C380 793 351 766 351 729C351 691 380 664 419 664ZM439 550L439 265C439 159 386 96 292 96C210 96 174 141 174 226L174 550L61 550L61 203C61 69 134-12 256-12C341-12 400 28 439 91L439 0L552 0L552 550Z"  horiz-adv-x="616" vert-adv-y="1000"  />

      
      <glyph glyph-name="unif9" unicode="&#xf9;" d="M421 675L257 839L190 771L369 624ZM439 550L439 265C439 159 386 96 292 96C210 96 174 141 174 226L174 550L61 550L61 203C61 69 134-12 256-12C341-12 400 28 439 91L439 0L552 0L552 550Z"  horiz-adv-x="616" vert-adv-y="1000"  />

      
      <glyph glyph-name="uni0171" unicode="&#x0171;" d="M323 814L253 848L154 650L205 625ZM339 625L457 814L387 848L288 650ZM439 550L439 265C439 159 386 96 292 96C210 96 174 141 174 226L174 550L61 550L61 203C61 69 134-12 256-12C341-12 400 28 439 91L439 0L552 0L552 550Z"  horiz-adv-x="616" vert-adv-y="1000"  />

      
      <glyph glyph-name="uni016B" unicode="&#x016B;" d="M431 770L181 770L181 687L431 687ZM439 550L439 265C439 159 386 96 292 96C210 96 174 141 174 226L174 550L61 550L61 203C61 69 134-12 256-12C341-12 400 28 439 91L439 0L552 0L552 550Z"  horiz-adv-x="616" vert-adv-y="1000"  />

      
      <glyph glyph-name="uni0173" unicode="&#x0173;" d="M439 550L439 265C439 159 386 96 292 96C210 96 174 141 174 226L174 550L61 550L61 203C61 69 134-12 256-12C341-12 400 28 439 91L439 0L474 0C406-62 361-106 361-166C361-234 415-262 490-262C512-262 543-259 551-258L551-193C543-195 526-198 508-198C470-198 449-184 449-152C449-113 481-77 551 0L552 0L552 550Z"  horiz-adv-x="616" vert-adv-y="1000"  />

      
      <glyph glyph-name="uni016F" unicode="&#x016F;" d="M306 625C375 625 433 682 432 751C433 821 376 877 306 877C236 877 181 821 181 751C181 682 237 625 306 625ZM306 811C339 811 365 785 365 751C365 716 339 691 306 691C274 691 247 716 248 751C247 785 274 811 306 811ZM439 550L439 265C439 159 386 96 292 96C210 96 174 141 174 226L174 550L61 550L61 203C61 69 134-12 256-12C341-12 400 28 439 91L439 0L552 0L552 550Z"  horiz-adv-x="616" vert-adv-y="1000"  />

      
      <glyph glyph-name="uni76" unicode="&#x76;" d="M437 550L290 118L144 550L24 550L222 0L359 0L557 550Z"  horiz-adv-x="581" vert-adv-y="1000"  />

      
      <glyph glyph-name="uni77" unicode="&#x77;" d="M723 550L675 377L610 121L546 377L498 550L362 550L313 377L249 119L185 377L136 550L24 550L181 0L313 0L366 185L421 436L439 436L494 185L547 0L679 0L836 550Z"  horiz-adv-x="860" vert-adv-y="1000"  />

      
      <glyph glyph-name="uni1E83" unicode="&#x1E83;" d="M545 772L477 840L314 677L365 625ZM723 550L675 377L610 121L546 377L498 550L362 550L313 377L249 119L185 377L136 550L24 550L181 0L313 0L366 185L421 436L439 436L494 185L547 0L679 0L836 550Z"  horiz-adv-x="860" vert-adv-y="1000"  />

      
      <glyph glyph-name="uni0175" unicode="&#x0175;" d="M430 734L532 625L594 686L430 850L267 686L328 625ZM723 550L675 377L610 121L546 377L498 550L362 550L313 377L249 119L185 377L136 550L24 550L181 0L313 0L366 185L421 436L439 436L494 185L547 0L679 0L836 550Z"  horiz-adv-x="860" vert-adv-y="1000"  />

      
      <glyph glyph-name="uni1E85" unicode="&#x1E85;" d="M316 664C355 664 383 691 383 729C383 766 355 793 316 793C278 793 249 766 249 729C249 691 278 664 316 664ZM543 664C582 664 611 691 611 729C611 766 582 793 543 793C504 793 475 766 475 729C475 691 504 664 543 664ZM723 550L675 377L610 121L546 377L498 550L362 550L313 377L249 119L185 377L136 550L24 550L181 0L313 0L366 185L421 436L439 436L494 185L547 0L679 0L836 550Z"  horiz-adv-x="860" vert-adv-y="1000"  />

      
      <glyph glyph-name="uni1E81" unicode="&#x1E81;" d="M545 675L381 839L314 771L493 624ZM723 550L675 377L610 121L546 377L498 550L362 550L313 377L249 119L185 377L136 550L24 550L181 0L313 0L366 185L421 436L439 436L494 185L547 0L679 0L836 550Z"  horiz-adv-x="860" vert-adv-y="1000"  />

      
      <glyph glyph-name="uni78" unicode="&#x78;" d="M556 0L360 281L546 550L410 550L292 366L170 550L35 550L221 283L24 0L160 0L288 197L421 0Z"  horiz-adv-x="580" vert-adv-y="1000"  />

      
      <glyph glyph-name="uni79" unicode="&#x79;" d="M460 550L301 192L145 550L24 550L241 70L96-250L217-250L581 550Z"  horiz-adv-x="605" vert-adv-y="1000"  />

      
      <glyph glyph-name="unifd" unicode="&#xfd;" d="M418 772L350 840L187 677L238 625ZM460 550L301 192L145 550L24 550L241 70L96-250L217-250L581 550Z"  horiz-adv-x="605" vert-adv-y="1000"  />

      
      <glyph glyph-name="uni0177" unicode="&#x0177;" d="M302 734L404 625L466 686L302 850L139 686L200 625ZM460 550L301 192L145 550L24 550L241 70L96-250L217-250L581 550Z"  horiz-adv-x="605" vert-adv-y="1000"  />

      
      <glyph glyph-name="uniff" unicode="&#xff;" d="M188 664C227 664 255 691 255 729C255 766 227 793 188 793C150 793 121 766 121 729C121 691 150 664 188 664ZM415 664C454 664 483 691 483 729C483 766 454 793 415 793C376 793 347 766 347 729C347 691 376 664 415 664ZM460 550L301 192L145 550L24 550L241 70L96-250L217-250L581 550Z"  horiz-adv-x="605" vert-adv-y="1000"  />

      
      <glyph glyph-name="uni1EF3" unicode="&#x1EF3;" d="M418 675L254 839L187 771L366 624ZM460 550L301 192L145 550L24 550L241 70L96-250L217-250L581 550Z"  horiz-adv-x="605" vert-adv-y="1000"  />

      
      <glyph glyph-name="uni7a" unicode="&#x7a;" d="M183 107L498 443L498 550L57 550L57 443L353 443L39 107L39 0L503 0L503 107Z"  horiz-adv-x="542" vert-adv-y="1000"  />

      
      <glyph glyph-name="uni017A" unicode="&#x017A;" d="M386 772L318 840L155 677L206 625ZM183 107L498 443L498 550L57 550L57 443L353 443L39 107L39 0L503 0L503 107Z"  horiz-adv-x="542" vert-adv-y="1000"  />

      
      <glyph glyph-name="uni017E" unicode="&#x017E;" d="M435 789L373 850L271 742L169 850L108 789L271 625ZM183 107L498 443L498 550L57 550L57 443L353 443L39 107L39 0L503 0L503 107Z"  horiz-adv-x="542" vert-adv-y="1000"  />

      
      <glyph glyph-name="uni017C" unicode="&#x017C;" d="M271 658C314 658 345 688 345 729C345 769 314 798 271 798C230 798 198 769 198 729C198 688 230 658 271 658ZM183 107L498 443L498 550L57 550L57 443L353 443L39 107L39 0L503 0L503 107Z"  horiz-adv-x="542" vert-adv-y="1000"  />

      
      <glyph glyph-name="uni0410" unicode="&#x0410;" d="M597 0L717 0L446 700L302 700L31 0L151 0L222 188L526 188ZM263 295L374 588L485 295Z"  horiz-adv-x="748" vert-adv-y="1000"  />

      
      <glyph glyph-name="uni0411" unicode="&#x0411;" d="M383 427L195 427L195 592L564 592L564 700L195 700L82 700L82 0L376 0C529 0 615 82 615 215C615 349 537 427 383 427ZM372 108L195 108L195 323L378 323C465 323 500 283 500 216C500 150 459 108 372 108Z"  horiz-adv-x="655" vert-adv-y="1000"  />

      
      <glyph glyph-name="uni0412" unicode="&#x0412;" d="M500 374C563 403 593 449 593 520C593 635 516 700 380 700L82 700L82 0L384 0C531 0 616 75 616 198C616 283 579 350 500 374ZM479 502C479 445 449 412 367 412L195 412L195 592L366 592C447 592 479 563 479 502ZM381 108L195 108L195 308L380 308C472 308 502 271 502 207C502 147 473 108 381 108Z"  horiz-adv-x="657" vert-adv-y="1000"  />

      
      <glyph glyph-name="uni0413" unicode="&#x0413;" d="M514 700L82 700L82 0L195 0L195 592L514 592Z"  horiz-adv-x="545" vert-adv-y="1000"  />

      
      <glyph glyph-name="uni0490" unicode="&#x0490;" d="M514 770L401 770L401 700L82 700L82 0L195 0L195 592L514 592Z"  horiz-adv-x="545" vert-adv-y="1000"  />

      
      <glyph glyph-name="uni0414" unicode="&#x0414;" d="M686 108L686 700L251 700L174 224C163 159 151 125 130 108L31 108L31-143L144-143L144 0L673 0L673-143L786-143L786 108ZM285 214L346 592L573 592L573 108L255 108C268 132 277 166 285 214Z"  horiz-adv-x="817" vert-adv-y="1000"  />

      
      <glyph glyph-name="uni0415" unicode="&#x0415;" d="M539 592L539 700L82 700L82 0L539 0L539 108L195 108L195 303L514 303L514 411L195 411L195 592Z"  horiz-adv-x="580" vert-adv-y="1000"  />

      
      <glyph glyph-name="uni0401" unicode="&#x0401;" d="M194 809C233 809 261 837 261 874C261 911 233 939 194 939C156 939 127 911 127 874C127 837 156 809 194 809ZM421 809C460 809 489 837 489 874C489 911 460 939 421 939C382 939 353 911 353 874C353 837 382 809 421 809ZM539 592L539 700L82 700L82 0L539 0L539 108L195 108L195 303L514 303L514 411L195 411L195 592Z"  horiz-adv-x="580" vert-adv-y="1000"  />

      
      <glyph glyph-name="uni0416" unicode="&#x0416;" d="M987 0L687 359L973 700L834 700L565 382L565 700L452 700L452 382L183 700L44 700L330 359L31 0L171 0L452 333L452 0L565 0L565 333L846 0Z"  horiz-adv-x="1017" vert-adv-y="1000"  />

      
      <glyph glyph-name="uni0417" unicode="&#x0417;" d="M473 368C532 393 567 448 567 512C567 629 464 712 316 712C176 712 70 646 50 500L164 500C183 578 233 604 313 604C404 604 452 561 452 498C452 437 406 409 317 409L232 409L232 309L338 309C441 309 475 268 475 209C475 140 426 96 325 96C234 96 172 127 155 209L41 209C57 60 176-12 327-12C486-12 590 69 590 199C590 281 546 342 473 368Z"  horiz-adv-x="630" vert-adv-y="1000"  />

      
      <glyph glyph-name="uni0418" unicode="&#x0418;" d="M530 700L180 160L190 407L190 700L77 700L77 0L210 0L561 541L550 293L550 0L663 0L663 700Z"  horiz-adv-x="740" vert-adv-y="1000"  />

      
      <glyph glyph-name="uni0419" unicode="&#x0419;" d="M370 777C457 777 533 836 533 933L533 955L443 955L443 936C443 892 414 864 370 864C325 864 296 892 296 936L296 955L206 955L206 933C206 836 282 777 370 777ZM530 700L180 160L190 407L190 700L77 700L77 0L210 0L561 541L550 293L550 0L663 0L663 700Z"  horiz-adv-x="740" vert-adv-y="1000"  />

      
      <glyph glyph-name="uni041A" unicode="&#x041A;" d="M634 0L318 359L620 700L478 700L195 380L195 700L82 700L82 0L195 0L195 334L491 0Z"  horiz-adv-x="665" vert-adv-y="1000"  />

      
      <glyph glyph-name="uni041B" unicode="&#x041B;" d="M240 700L163 224C146 122 123 93 71 93C60 93 42 95 31 96L31-6C48-9 75-12 93-12C187-12 247 50 274 214L335 592L564 592L564 0L677 0L677 700Z"  horiz-adv-x="759" vert-adv-y="1000"  />

      
      <glyph glyph-name="uni041C" unicode="&#x041C;" d="M612 700L411 398L210 700L77 700L77 0L190 0L190 547L405 221L416 221L632 547L632 0L745 0L745 700Z"  horiz-adv-x="827" vert-adv-y="1000"  />

      
      <glyph glyph-name="uni041D" unicode="&#x041D;" d="M554 700L554 414L195 414L195 700L82 700L82 0L195 0L195 306L554 306L554 0L667 0L667 700Z"  horiz-adv-x="748" vert-adv-y="1000"  />

      
      <glyph glyph-name="uni041E" unicode="&#x041E;" d="M415 712C210 712 52 556 52 350C52 144 210-12 415-12C620-12 777 144 778 350C777 556 620 712 415 712ZM415 604C556 604 663 496 663 350C663 204 556 96 415 96C273 96 166 204 166 350C166 496 273 604 415 604Z"  horiz-adv-x="829" vert-adv-y="1000"  />

      
      <glyph glyph-name="uni041F" unicode="&#x041F;" d="M667 700L195 700L82 700L82 0L195 0L195 592L554 592L554 0L667 0Z"  horiz-adv-x="748" vert-adv-y="1000"  />

      
      <glyph glyph-name="uni0420" unicode="&#x0420;" d="M369 700L82 700L82 0L195 0L195 237L369 237C522 237 615 333 615 470C615 608 522 700 369 700ZM365 345L195 345L195 592L365 592C457 592 500 540 500 469C500 398 457 345 365 345Z"  horiz-adv-x="666" vert-adv-y="1000"  />

      
      <glyph glyph-name="uni0421" unicode="&#x0421;" d="M416-12C578-12 707 86 751 231L630 231C593 149 514 96 415 96C272 96 169 204 169 350C169 496 272 604 415 604C514 604 593 551 630 469L751 469C707 614 578 712 416 712C208 712 55 557 55 350C55 143 208-12 416-12Z"  horiz-adv-x="792" vert-adv-y="1000"  />

      
      <glyph glyph-name="uni0422" unicode="&#x0422;" d="M571 700L31 700L31 592L244 592L244 0L357 0L357 592L571 592Z"  horiz-adv-x="602" vert-adv-y="1000"  />

      
      <glyph glyph-name="uni0423" unicode="&#x0423;" d="M681 700L555 700L373 370L189 700L62 700L310 248L175 0L301 0Z"  horiz-adv-x="712" vert-adv-y="1000"  />

      
      <glyph glyph-name="uni040E" unicode="&#x040E;" d="M532 955L442 955L442 936C442 892 413 864 369 864C324 864 295 892 295 936L295 955L205 955L205 933C205 836 281 777 369 777C456 777 532 836 532 933ZM681 700L555 700L373 370L189 700L62 700L310 248L175 0L301 0Z"  horiz-adv-x="712" vert-adv-y="1000"  />

      
      <glyph glyph-name="uni0424" unicode="&#x0424;" d="M584 623L526 623L526 700L413 700L413 623L354 623C196 623 70 522 70 357C70 192 194 91 354 91L413 91L413 0L526 0L526 91L584 91C744 91 868 192 868 357C868 522 742 623 584 623ZM354 198C258 198 184 251 184 357C184 462 258 515 354 515L413 515L413 198ZM584 198L526 198L526 515L584 515C680 515 754 462 754 357C754 251 680 198 584 198Z"  horiz-adv-x="920" vert-adv-y="1000"  />

      
      <glyph glyph-name="uni0425" unicode="&#x0425;" d="M627 0L400 354L620 700L486 700L331 450L176 700L41 700L259 361L31 0L165 0L328 266L493 0Z"  horiz-adv-x="658" vert-adv-y="1000"  />

      
      <glyph glyph-name="uni0427" unicode="&#x0427;" d="M464 700L464 363C433 344 380 333 318 333C224 333 166 369 166 474L166 700L52 700L52 461C52 296 151 225 296 225C371 225 426 240 464 258L464 0L577 0L577 700Z"  horiz-adv-x="659" vert-adv-y="1000"  />

      
      <glyph glyph-name="uni0426" unicode="&#x0426;" d="M638 108L638 700L525 700L525 108L195 108L195 700L82 700L82 108L82 0L638 0L638-143L751-143L751 108Z"  horiz-adv-x="782" vert-adv-y="1000"  />

      
      <glyph glyph-name="uni0428" unicode="&#x0428;" d="M825 700L825 108L566 108L566 700L453 700L453 108L195 108L195 700L82 700L82 108L82 0L938 0L938 86L938 700Z"  horiz-adv-x="1019" vert-adv-y="1000"  />

      
      <glyph glyph-name="uni0429" unicode="&#x0429;" d="M938 108L938 700L825 700L825 108L566 108L566 700L453 700L453 108L195 108L195 700L82 700L82 108L82 0L938 0L938-143L1051-143L1051 108Z"  horiz-adv-x="1082" vert-adv-y="1000"  />

      
      <glyph glyph-name="uni042C" unicode="&#x042C;" d="M374 429L195 429L195 700L82 700L82 0L371 0C524 0 610 82 610 215C610 349 529 429 374 429ZM367 108L195 108L195 323L370 323C457 323 495 283 495 216C495 150 454 108 367 108Z"  horiz-adv-x="661" vert-adv-y="1000"  />

      
      <glyph glyph-name="uni042A" unicode="&#x042A;" d="M459 429L280 429L280 700L229 700L31 700L31 592L166 592L166 0L456 0C609 0 694 82 694 215C694 349 614 429 459 429ZM452 108L280 108L280 323L455 323C542 323 580 283 580 216C580 150 539 108 452 108Z"  horiz-adv-x="746" vert-adv-y="1000"  />

      
      <glyph glyph-name="uni042B" unicode="&#x042B;" d="M374 429L195 429L195 700L82 700L82 0L371 0C524 0 610 82 610 215C610 349 529 429 374 429ZM699 700L699 0L812 0L812 700ZM367 108L195 108L195 323L370 323C457 323 495 283 495 216C495 150 454 108 367 108Z"  horiz-adv-x="878" vert-adv-y="1000"  />

      
      <glyph glyph-name="uni0404" unicode="&#x0404;" d="M415 96C289 96 195 179 173 298L468 298L468 406L174 406C197 523 291 604 415 604C514 604 593 551 630 469L751 469C707 614 578 712 416 712C208 712 55 557 55 350C55 143 208-12 416-12C578-12 707 86 751 231L630 231C593 149 514 96 415 96Z"  horiz-adv-x="792" vert-adv-y="1000"  />

      
      <glyph glyph-name="uni042D" unicode="&#x042D;" d="M378 712C212 712 81 614 41 469L162 469C197 554 280 604 379 604C503 604 593 523 615 407L321 407L321 299L616 299C596 180 505 96 379 96C281 96 197 146 162 231L41 231C82 86 214-12 379-12C586-12 735 143 735 350C735 557 586 712 378 712Z"  horiz-adv-x="789" vert-adv-y="1000"  />

      
      <glyph glyph-name="uni0406" unicode="&#x0406;" d="M82 0L195 0L195 700L82 700Z"  horiz-adv-x="277" vert-adv-y="1000"  />

      
      <glyph glyph-name="uni0407" unicode="&#x0407;" d="M24 939C-14 939-43 911-43 874C-43 837-14 809 24 809C63 809 91 837 91 874C91 911 63 939 24 939ZM251 939C212 939 183 911 183 874C183 837 212 809 251 809C290 809 319 837 319 874C319 911 290 939 251 939ZM82 0L195 0L195 700L82 700Z"  horiz-adv-x="277" vert-adv-y="1000"  />

      
      <glyph glyph-name="uni042E" unicode="&#x042E;" d="M670 712C483 712 335 582 310 403L195 403L195 700L82 700L82 0L195 0L195 295L311 295C336 117 484-12 670-12C875-12 1033 144 1033 350C1033 556 875 712 670 712ZM670 96C529 96 422 204 421 350C422 496 529 604 670 604C811 604 918 496 918 350C918 204 811 96 670 96Z"  horiz-adv-x="1084" vert-adv-y="1000"  />

      
      <glyph glyph-name="uni042F" unicode="&#x042F;" d="M302 700C149 700 64 611 64 477C64 364 126 286 232 261L31 0L170 0L361 253L478 253L478 0L591 0L591 700ZM314 356C221 356 178 405 178 474C178 543 221 592 314 592L478 592L478 356Z"  horiz-adv-x="673" vert-adv-y="1000"  />

      
      <glyph glyph-name="uni0430" unicode="&#x0430;" d="M494 550L494 456C454 519 388 562 301 562C157 562 48 443 48 275C48 107 155-12 302-12C388-12 454 29 494 92L494 0L607 0L607 550ZM326 96C231 96 162 169 162 275C162 380 230 454 326 454C422 454 495 380 495 275C495 169 422 96 326 96Z"  horiz-adv-x="673" vert-adv-y="1000"  />

      
      <glyph glyph-name="uni0431" unicode="&#x0431;" d="M365 537C282 537 203 498 163 422C179 636 295 675 545 675L545 782C240 782 48 715 48 324C49 93 181-12 335-12C492-12 614 101 614 272C614 432 505 537 365 537ZM330 86C235 86 162 156 162 266C162 372 243 440 336 440C430 440 501 371 501 266C501 156 425 86 330 86Z"  horiz-adv-x="661" vert-adv-y="1000"  />

      
      <glyph glyph-name="uni0432" unicode="&#x0432;" d="M441 295C486 322 516 355 516 411C516 512 441 550 322 550L66 550L66 0L346 0C468 0 543 54 543 158C543 225 509 275 441 295ZM402 390C402 351 379 323 311 323L179 323L179 461L313 461C382 461 402 434 402 390ZM339 89L179 89L179 241L338 241C405 241 429 212 429 167C429 121 409 89 339 89Z"  horiz-adv-x="582" vert-adv-y="1000"  />

      
      <glyph glyph-name="uni0433" unicode="&#x0433;" d="M432 550L66 550L66 0L179 0L179 444L432 444Z"  horiz-adv-x="456" vert-adv-y="1000"  />

      
      <glyph glyph-name="uni0491" unicode="&#x0491;" d="M432 624L319 624L319 550L66 550L66 0L179 0L179 444L432 444Z"  horiz-adv-x="456" vert-adv-y="1000"  />

      
      <glyph glyph-name="uni0434" unicode="&#x0434;" d="M616 106L616 550L223 550L174 245C161 167 145 125 120 106L24 106L24-143L137-143L137 0L603 0L603-143L716-143L716 106ZM243 106C262 134 276 176 286 240L319 444L503 444L503 106Z"  horiz-adv-x="740" vert-adv-y="1000"  />

      
      <glyph glyph-name="uni0435" unicode="&#x0435;" d="M332 562C166 562 48 440 48 274C48 108 167-12 334-12C451-12 556 46 599 169L482 169C456 115 401 87 335 87C243 87 172 143 163 244L610 244C621 425 509 562 332 562ZM332 464C415 464 472 411 489 336L169 336C188 410 246 464 332 464Z"  horiz-adv-x="654" vert-adv-y="1000"  />

      
      <glyph glyph-name="uni0451" unicode="&#x0451;" d="M213 664C252 664 280 691 280 729C280 766 252 793 213 793C175 793 146 766 146 729C146 691 175 664 213 664ZM440 664C479 664 508 691 508 729C508 766 479 793 440 793C401 793 372 766 372 729C372 691 401 664 440 664ZM332 562C166 562 48 440 48 274C48 108 167-12 334-12C451-12 556 46 599 169L482 169C456 115 401 87 335 87C243 87 172 143 163 244L610 244C621 425 509 562 332 562ZM332 464C415 464 472 411 489 336L169 336C188 410 246 464 332 464Z"  horiz-adv-x="654" vert-adv-y="1000"  />

      
      <glyph glyph-name="uni0436" unicode="&#x0436;" d="M947 0L657 289L926 550L780 550L542 311L542 550L429 550L429 311L191 550L45 550L314 289L24 0L169 0L429 254L429 0L542 0L542 254L802 0Z"  horiz-adv-x="971" vert-adv-y="1000"  />

      
      <glyph glyph-name="uni0437" unicode="&#x0437;" d="M448 291C491 312 520 347 520 403C520 501 431 562 291 562C138 562 66 490 46 394L161 394C176 457 230 476 289 476C375 476 406 440 406 395C406 355 383 327 306 327L224 327L224 240L326 240C405 240 423 202 423 164C423 111 385 76 297 76C211 76 162 105 146 181L32 181C53 67 128-12 300-12C444-12 537 50 537 156C537 218 507 269 448 291Z"  horiz-adv-x="576" vert-adv-y="1000"  />

      
      <glyph glyph-name="uni0438" unicode="&#x0438;" d="M444 550L172 147L179 320L179 550L66 550L66 0L199 0L471 404L464 230L464 0L577 0L577 550Z"  horiz-adv-x="642" vert-adv-y="1000"  />

      
      <glyph glyph-name="uni0439" unicode="&#x0439;" d="M322 633C409 633 485 691 485 788L485 811L395 811L395 792C395 747 366 719 322 719C277 719 248 747 248 792L248 811L158 811L158 788C158 691 234 633 322 633ZM444 550L172 147L179 320L179 550L66 550L66 0L199 0L471 404L464 230L464 0L577 0L577 550Z"  horiz-adv-x="642" vert-adv-y="1000"  />

      
      <glyph glyph-name="uni043A" unicode="&#x043A;" d="M584 0L293 289L562 550L417 550L179 312L179 550L66 550L66 0L179 0L179 254L438 0Z"  horiz-adv-x="608" vert-adv-y="1000"  />

      
      <glyph glyph-name="uni043B" unicode="&#x043B;" d="M202 550L150 224C133 122 110 93 57 93C46 93 35 95 24 96L24-6C42-9 62-12 80-12C174-12 235 50 262 214L298 444L480 444L480 0L593 0L593 550Z"  horiz-adv-x="658" vert-adv-y="1000"  />

      
      <glyph glyph-name="uni043C" unicode="&#x043C;" d="M524 550L361 324L199 550L66 550L66 0L179 0L179 230L171 421L360 152L363 152L552 421L544 230L544 0L657 0L657 550Z"  horiz-adv-x="723" vert-adv-y="1000"  />

      
      <glyph glyph-name="uni043D" unicode="&#x043D;" d="M471 550L471 334L179 334L179 550L66 550L66 0L179 0L179 227L471 227L471 0L584 0L584 550Z"  horiz-adv-x="649" vert-adv-y="1000"  />

      
      <glyph glyph-name="uni043E" unicode="&#x043E;" d="M333 562C176 562 48 441 48 275C48 111 174-12 333-12C493-12 618 110 618 275C618 441 491 562 333 562ZM333 454C428 454 504 381 504 275C504 169 429 96 333 96C237 96 162 169 162 275C162 381 238 454 333 454Z"  horiz-adv-x="665" vert-adv-y="1000"  />

      
      <glyph glyph-name="uni043F" unicode="&#x043F;" d="M576 550L179 550L66 550L66 0L179 0L179 444L463 444L463 0L576 0Z"  horiz-adv-x="641" vert-adv-y="1000"  />

      
      <glyph glyph-name="uni0440" unicode="&#x0440;" d="M377 562C290 562 224 519 184 456L184 550L71 550L71-250L184-250L184 92C224 30 290-12 376-12C523-12 630 107 630 275C630 443 521 562 377 562ZM352 96C256 96 183 169 183 275C183 380 256 454 352 454C448 454 516 380 516 275C516 169 447 96 352 96Z"  horiz-adv-x="678" vert-adv-y="1000"  />

      
      <glyph glyph-name="uni0441" unicode="&#x0441;" d="M333-12C462-12 578 65 604 201L487 201C466 133 405 93 333 93C234 93 162 168 162 275C162 381 232 457 334 457C405 457 466 419 487 350L604 350C579 483 464 562 334 562C170 562 48 439 48 275C48 111 170-12 333-12Z"  horiz-adv-x="642" vert-adv-y="1000"  />

      
      <glyph glyph-name="uni0442" unicode="&#x0442;" d="M496 550L317 550L24 550L24 444L204 444L204 0L317 0L317 444L496 444Z"  horiz-adv-x="520" vert-adv-y="1000"  />

      
      <glyph glyph-name="uni0443" unicode="&#x0443;" d="M460 550L301 192L145 550L24 550L241 70L96-250L217-250L581 550Z"  horiz-adv-x="605" vert-adv-y="1000"  />

      
      <glyph glyph-name="uni045E" unicode="&#x045E;" d="M303 633C390 633 466 691 466 788L466 811L376 811L376 792C376 747 347 719 303 719C258 719 229 747 229 792L229 811L139 811L139 788C139 691 215 633 303 633ZM460 550L301 192L145 550L24 550L241 70L96-250L217-250L581 550Z"  horiz-adv-x="605" vert-adv-y="1000"  />

      
      <glyph glyph-name="uni0444" unicode="&#x0444;" d="M800 562C714 562 648 520 607 456L607 770L494 770L494 456C454 520 387 562 301 562C157 562 48 443 48 275C48 107 155-12 302-12C388-12 453 29 494 91L494-238L607-238L607 91C649 29 714-12 800-12C946-12 1054 107 1054 275C1054 443 945 562 800 562ZM326 96C231 96 162 169 162 275C162 380 230 454 326 454C422 454 495 380 495 275C495 169 422 96 326 96ZM776 96C680 96 607 169 607 275C607 380 680 454 776 454C872 454 940 380 940 275C940 169 871 96 776 96Z"  horiz-adv-x="1102" vert-adv-y="1000"  />

      
      <glyph glyph-name="uni0445" unicode="&#x0445;" d="M556 0L360 281L546 550L410 550L292 366L170 550L35 550L221 283L24 0L160 0L288 197L421 0Z"  horiz-adv-x="580" vert-adv-y="1000"  />

      
      <glyph glyph-name="uni0447" unicode="&#x0447;" d="M413 550L413 289C382 271 334 262 290 262C195 262 164 300 164 389L164 550L51 550L51 362C51 212 146 161 268 161C326 161 375 172 413 188L413 0L526 0L526 550Z"  horiz-adv-x="592" vert-adv-y="1000"  />

      
      <glyph glyph-name="uni0446" unicode="&#x0446;" d="M562 106L562 550L449 550L449 106L179 106L179 550L66 550L66 0L179 0L549 0L549-143L662-143L662 106Z"  horiz-adv-x="686" vert-adv-y="1000"  />

      
      <glyph glyph-name="uni0448" unicode="&#x0448;" d="M692 550L692 106L492 106L492 550L379 550L379 106L179 106L179 550L66 550L66 0L122 0L379 0L692 0L805 0L805 550Z"  horiz-adv-x="871" vert-adv-y="1000"  />

      
      <glyph glyph-name="uni0449" unicode="&#x0449;" d="M805 106L805 550L692 550L692 106L492 106L492 550L379 550L379 106L179 106L179 550L66 550L66 0L179 0L492 0L792 0L792-143L905-143L905 106Z"  horiz-adv-x="929" vert-adv-y="1000"  />

      
      <glyph glyph-name="uni044C" unicode="&#x044C;" d="M338 378L179 378L179 550L66 550L66 0L334 0C447 0 535 61 535 193C535 325 451 378 338 378ZM331 108L179 108L179 278L332 278C401 278 421 244 421 193C421 144 400 108 331 108Z"  horiz-adv-x="583" vert-adv-y="1000"  />

      
      <glyph glyph-name="uni044A" unicode="&#x044A;" d="M420 378L261 378L261 550L24 550L24 443L148 443L149 0L416 0C529 0 617 61 617 193C617 325 533 378 420 378ZM413 108L262 108L261 278L414 278C483 278 503 244 503 193C503 144 482 108 413 108Z"  horiz-adv-x="665" vert-adv-y="1000"  />

      
      <glyph glyph-name="uni044B" unicode="&#x044B;" d="M337 378L179 378L179 550L66 550L66 0L333 0C446 0 534 61 534 193C534 325 450 378 337 378ZM615 550L615 0L728 0L728 550ZM329 108L179 108L179 278L331 278C400 278 420 244 420 193C420 144 398 108 329 108Z"  horiz-adv-x="793" vert-adv-y="1000"  />

      
      <glyph glyph-name="uni0454" unicode="&#x0454;" d="M333 90C247 90 182 146 166 233L369 233L369 322L167 322C184 405 247 460 334 460C405 460 466 422 487 350L604 350C579 483 464 562 334 562C170 562 48 439 48 275C48 111 170-12 333-12C462-12 578 65 604 201L487 201C466 130 405 90 333 90Z"  horiz-adv-x="642" vert-adv-y="1000"  />

      
      <glyph glyph-name="uni044D" unicode="&#x044D;" d="M311 562C179 562 62 483 38 350L155 350C174 420 237 460 311 460C398 460 461 405 477 322L275 322L275 233L478 233C463 147 399 90 312 90C240 90 175 129 155 201L38 201C63 64 182-12 312-12C477-12 596 111 596 275C596 439 476 562 311 562Z"  horiz-adv-x="644" vert-adv-y="1000"  />

      
      <glyph glyph-name="uni0456" unicode="&#x0456;" d="M122 798C81 798 49 769 49 729C49 688 81 658 122 658C165 658 196 688 196 729C196 769 165 798 122 798ZM66 0L179 0L179 550L66 550Z"  horiz-adv-x="244" vert-adv-y="1000"  />

      
      <glyph glyph-name="uni0457" unicode="&#x0457;" d="M8 793C-30 793-59 766-59 729C-59 691-30 664 8 664C47 664 75 691 75 729C75 766 47 793 8 793ZM235 793C196 793 167 766 167 729C167 691 196 664 235 664C274 664 303 691 303 729C303 766 274 793 235 793ZM66 0L179 0L179 550L66 550Z"  horiz-adv-x="244" vert-adv-y="1000"  />

      
      <glyph glyph-name="uni044E" unicode="&#x044E;" d="M566 562C426 562 310 466 286 328L179 328L179 550L66 550L66 0L179 0L179 221L286 221C310 84 425-12 566-12C726-12 851 110 851 275C851 440 724 562 566 562ZM566 96C471 96 395 169 395 275C395 381 471 454 566 454C662 454 737 380 737 275C737 169 662 96 566 96Z"  horiz-adv-x="899" vert-adv-y="1000"  />

      
      <glyph glyph-name="uni044F" unicode="&#x044F;" d="M252 550C139 550 52 493 52 366C52 274 109 226 185 207L24 0L163 0L306 199L415 199L415 0L528 0L528 550ZM261 292C194 292 166 323 166 368C166 414 188 448 258 448L415 448L415 292Z"  horiz-adv-x="594" vert-adv-y="1000"  />

      
      <glyph glyph-name="uni30" unicode="&#x30;" d="M343 712C161 712 52 577 52 350C52 123 161-12 343-12C527-12 635 125 635 350C635 575 527 712 343 712ZM343 96C232 96 166 174 166 350C166 526 232 604 343 604C455 604 521 526 521 350C521 174 455 96 343 96Z"  horiz-adv-x="687" vert-adv-y="1000"  />

      
      <glyph glyph-name="uni31" unicode="&#x31;" d="M252 700L31 614L31 503L190 568L190 0L303 0L303 700Z"  horiz-adv-x="385" vert-adv-y="1000"  />

      
      <glyph glyph-name="uni32" unicode="&#x32;" d="M226 108L228 109L338 204C481 329 555 392 555 498C555 616 462 712 313 712C168 712 63 621 47 475L161 475C176 555 223 604 308 604C394 604 441 554 441 493C441 431 401 396 244 259L41 81L41 0L572 0L572 108Z"  horiz-adv-x="613" vert-adv-y="1000"  />

      
      <glyph glyph-name="uni33" unicode="&#x33;" d="M459 368C517 393 550 448 550 512C550 629 447 712 307 712C176 712 70 645 50 500L164 500C183 578 233 605 304 605C388 605 436 561 436 498C436 437 390 409 305 409L230 409L230 309L325 309C423 309 458 268 458 209C458 140 408 95 315 95C234 95 172 127 155 209L41 209C57 60 175-12 316-12C468-12 572 67 572 199C572 281 530 342 459 368Z"  horiz-adv-x="613" vert-adv-y="1000"  />

      
      <glyph glyph-name="uni34" unicode="&#x34;" d="M606 267L505 267L505 700L337 700L31 267L31 160L392 161L392 0L505 0L505 161L606 161ZM154 267L383 595L392 595L392 267Z"  horiz-adv-x="636" vert-adv-y="1000"  />

      
      <glyph glyph-name="uni35" unicode="&#x35;" d="M339 466C279 466 235 449 200 422L236 592L542 592L542 700L151 700L65 298L173 298C199 340 245 372 315 372C399 372 460 319 460 236C460 156 401 95 313 95C236 95 171 135 155 215L41 215C57 63 180-12 314-12C462-12 575 86 575 235C575 380 467 466 339 466Z"  horiz-adv-x="615" vert-adv-y="1000"  />

      
      <glyph glyph-name="uni36" unicode="&#x36;" d="M340 474C296 474 263 463 231 446L425 700L292 700C129 483 41 376 41 244C41 85 162-12 307-12C456-12 574 89 574 243C574 394 460 474 340 474ZM307 96C222 96 155 152 155 242C155 332 219 387 308 387C393 387 460 334 460 243C460 153 394 96 307 96Z"  horiz-adv-x="615" vert-adv-y="1000"  />

      
      <glyph glyph-name="uni37" unicode="&#x37;" d="M31 700L31 592L384 592L87 0L215 0L519 617L519 700Z"  horiz-adv-x="550" vert-adv-y="1000"  />

      
      <glyph glyph-name="uni38" unicode="&#x38;" d="M451 367C511 393 546 449 546 516C546 633 441 712 305 712C168 712 63 633 63 516C63 449 98 393 158 367C82 340 41 274 41 194C41 66 155-12 305-12C454-12 568 66 568 194C568 274 527 340 451 367ZM305 605C386 605 433 565 433 502C433 449 398 410 305 410C211 410 176 449 176 502C176 565 223 605 305 605ZM305 95C213 95 154 133 154 204C154 277 207 312 305 312C402 312 455 278 455 204C455 133 396 95 305 95Z"  horiz-adv-x="609" vert-adv-y="1000"  />

      
      <glyph glyph-name="uni39" unicode="&#x39;" d="M308 712C159 712 41 611 41 457C41 306 155 226 275 226C319 226 352 237 384 254L190 0L323 0C486 217 574 324 574 456C574 615 453 712 308 712ZM307 313C222 313 155 366 155 457C155 547 221 604 308 604C393 604 460 548 460 458C460 368 396 313 307 313Z"  horiz-adv-x="615" vert-adv-y="1000"  />

      
      <glyph glyph-name="uni2044" unicode="&#x2044;" d="M-144 0L-35 0L365 700L256 700Z"  horiz-adv-x="221" vert-adv-y="1000"  />

      
      <glyph glyph-name="unibd" unicode="&#xbd;" d="M249 302L249 700L198 700L34 648L34 559L152 599L152 302ZM577 700L177 0L286 0L686 700ZM708 79L778 123C865 177 912 218 912 281C912 345 862 409 755 409C646 409 588 344 581 264L680 264C686 316 712 337 753 337C792 337 813 316 813 285C813 252 794 235 722 180L576 70L576 0L928 0L928 79Z"  horiz-adv-x="962" vert-adv-y="1000"  />

      
      <glyph glyph-name="unibc" unicode="&#xbc;" d="M249 302L249 700L198 700L34 648L34 559L152 599L152 302ZM577 700L177 0L286 0L686 700ZM883 158L812 158L812 398L691 398L508 158L508 79L714 79L714 0L812 0L812 79L883 79ZM588 158L714 326L714 158Z"  horiz-adv-x="917" vert-adv-y="1000"  />

      
      <glyph glyph-name="unibe" unicode="&#xbe;" d="M385 417C385 462 360 496 324 514C353 529 373 552 373 588C373 651 319 712 213 712C112 712 48 657 41 575L140 575C146 619 173 639 211 639C251 639 274 618 274 587C274 556 250 538 220 538L169 538L169 474L233 474C266 474 286 456 286 421C286 387 261 363 214 363C172 363 142 383 133 427L34 427C43 346 109 291 218 291C334 291 385 354 385 417ZM675 700L275 0L384 0L784 700ZM981 158L910 158L910 398L789 398L606 158L606 79L812 79L812 0L910 0L910 79L981 79ZM686 158L812 326L812 158Z"  horiz-adv-x="1015" vert-adv-y="1000"  />

      
      <glyph glyph-name="uni215B" unicode="&#x215B;" d="M249 302L249 700L198 700L34 648L34 559L152 599L152 302ZM577 700L177 0L286 0L686 700ZM853 209C888 224 914 252 914 295C914 360 857 409 751 409C645 409 588 360 588 295C588 252 614 224 649 209C608 193 576 159 576 108C576 42 631-12 751-12C870-12 926 42 926 108C926 159 894 193 853 209ZM751 337C790 337 815 316 815 284C815 255 792 234 751 234C710 234 687 255 687 284C687 316 712 337 751 337ZM751 61C701 61 675 83 675 116C675 149 699 171 751 171C803 171 827 149 827 116C827 83 801 61 751 61Z"  horiz-adv-x="959" vert-adv-y="1000"  />

      
      <glyph glyph-name="uni215C" unicode="&#x215C;" d="M385 417C385 462 360 496 324 514C353 529 373 552 373 588C373 651 319 712 213 712C112 712 48 657 41 575L140 575C146 619 173 639 211 639C251 639 274 618 274 587C274 556 250 538 220 538L169 538L169 474L233 474C266 474 286 456 286 421C286 387 261 363 214 363C172 363 142 383 133 427L34 427C43 346 109 291 218 291C334 291 385 354 385 417ZM675 700L275 0L384 0L784 700ZM950 209C985 224 1011 252 1011 295C1011 360 954 409 848 409C742 409 685 360 685 295C685 252 711 224 746 209C705 193 673 159 673 108C673 42 728-12 848-12C967-12 1023 42 1023 108C1023 159 991 193 950 209ZM848 337C887 337 912 316 912 284C912 255 889 234 848 234C807 234 784 255 784 284C784 316 809 337 848 337ZM848 61C798 61 772 83 772 116C772 149 796 171 848 171C900 171 924 149 924 116C924 83 898 61 848 61Z"  horiz-adv-x="1057" vert-adv-y="1000"  />

      
      <glyph glyph-name="uni215D" unicode="&#x215D;" d="M378 433C378 514 317 566 231 566C193 566 164 555 140 537L159 624L354 624L354 700L99 700L50 468L142 468C158 489 181 503 210 503C257 503 281 472 281 433C281 392 255 363 210 363C172 363 142 385 133 423L34 423C46 352 105 291 213 291C325 291 378 358 378 433ZM668 700L268 0L377 0L777 700ZM944 209C979 224 1005 252 1005 295C1005 360 948 409 842 409C736 409 679 360 679 295C679 252 705 224 740 209C699 193 667 159 667 108C667 42 722-12 842-12C961-12 1017 42 1017 108C1017 159 985 193 944 209ZM842 337C881 337 906 316 906 284C906 255 883 234 842 234C801 234 778 255 778 284C778 316 803 337 842 337ZM842 61C792 61 766 83 766 116C766 149 790 171 842 171C894 171 918 149 918 116C918 83 892 61 842 61Z"  horiz-adv-x="1050" vert-adv-y="1000"  />

      
      <glyph glyph-name="uni215E" unicode="&#x215E;" d="M169 302L334 637L334 700L34 700L34 621L236 621L77 302ZM560 700L160 0L269 0L669 700ZM836 209C871 224 897 252 897 295C897 360 840 409 734 409C628 409 571 360 571 295C571 252 597 224 632 209C591 193 559 159 559 108C559 42 614-12 734-12C853-12 909 42 909 108C909 159 877 193 836 209ZM734 337C773 337 798 316 798 284C798 255 775 234 734 234C693 234 670 255 670 284C670 316 695 337 734 337ZM734 61C684 61 658 83 658 116C658 149 682 171 734 171C786 171 810 149 810 116C810 83 784 61 734 61Z"  horiz-adv-x="943" vert-adv-y="1000"  />

      
      <glyph glyph-name="uni2070" unicode="&#x2070;" d="M223 361C334 361 412 434 412 571C412 708 334 782 223 782C111 782 34 708 34 571C34 434 111 361 223 361ZM223 449C165 449 133 488 133 571C133 655 165 693 223 693C281 693 313 655 313 571C313 488 281 449 223 449Z"  horiz-adv-x="446" vert-adv-y="1000"  />

      
      <glyph glyph-name="unib9" unicode="&#xb9;" d="M198 770L34 718L34 629L152 669L152 372L249 372L249 770Z"  horiz-adv-x="283" vert-adv-y="1000"  />

      
      <glyph glyph-name="unib2" unicode="&#xb2;" d="M167 451L236 496C323 549 370 590 370 653C370 718 320 782 213 782C104 782 46 717 39 637L138 637C144 688 170 709 211 709C250 709 271 688 271 658C271 625 252 607 180 553L34 443L34 372L386 372L386 451Z"  horiz-adv-x="420" vert-adv-y="1000"  />

      
      <glyph glyph-name="unib3" unicode="&#xb3;" d="M324 584C353 599 373 622 373 658C373 721 319 782 213 782C112 782 48 727 41 645L140 645C146 689 173 709 211 709C251 709 274 688 274 657C274 626 250 608 220 608L169 608L169 544L233 544C266 544 286 526 286 491C286 457 261 433 214 433C172 433 142 453 133 497L34 497C43 416 109 361 218 361C334 361 385 424 385 487C385 532 360 566 324 584Z"  horiz-adv-x="419" vert-adv-y="1000"  />

      
      <glyph glyph-name="uni2074" unicode="&#x2074;" d="M409 530L338 530L338 770L217 770L34 530L34 451L240 451L240 372L338 372L338 451L409 451ZM114 530L240 698L240 530Z"  horiz-adv-x="443" vert-adv-y="1000"  />

      
      <glyph glyph-name="uni2075" unicode="&#x2075;" d="M231 636C193 636 164 625 140 607L159 694L354 694L354 770L99 770L50 538L142 538C158 559 181 573 210 573C257 573 281 542 281 503C281 462 255 433 210 433C172 433 142 455 133 493L34 493C46 422 105 361 213 361C325 361 378 428 378 503C378 584 317 636 231 636Z"  horiz-adv-x="412" vert-adv-y="1000"  />

      
      <glyph glyph-name="uni2076" unicode="&#x2076;" d="M229 634C208 634 187 630 167 624L298 770L194 770C88 649 34 587 34 512C34 436 89 361 203 361C313 361 369 431 369 501C369 569 318 634 229 634ZM201 437C156 437 131 466 131 504C131 543 158 569 201 569C247 569 271 541 271 503C271 465 246 437 201 437Z"  horiz-adv-x="402" vert-adv-y="1000"  />

      
      <glyph glyph-name="uni2077" unicode="&#x2077;" d="M34 770L34 691L236 691L77 372L169 372L334 707L334 770Z"  horiz-adv-x="368" vert-adv-y="1000"  />

      
      <glyph glyph-name="uni2078" unicode="&#x2078;" d="M311 582C346 597 372 625 372 668C372 732 315 782 209 782C103 782 46 732 46 668C46 625 72 597 106 582C66 566 34 531 34 481C34 414 89 361 209 361C328 361 384 414 384 481C384 531 352 566 311 582ZM209 709C248 709 273 688 273 657C273 627 250 607 209 607C168 607 145 627 145 657C145 688 170 709 209 709ZM209 433C159 433 133 456 133 489C133 521 157 543 209 543C261 543 285 521 285 489C285 456 259 433 209 433Z"  horiz-adv-x="418" vert-adv-y="1000"  />

      
      <glyph glyph-name="uni2079" unicode="&#x2079;" d="M200 782C89 782 34 711 34 641C34 573 84 509 174 509C194 509 215 512 235 519L105 372L208 372C314 493 369 556 369 631C369 706 314 782 200 782ZM201 574C155 574 131 601 131 639C131 676 156 705 201 705C247 705 271 676 271 639C271 600 245 574 201 574Z"  horiz-adv-x="402" vert-adv-y="1000"  />

      
      <glyph glyph-name="uni2a" unicode="&#x2a;" d="M483 541L448 619L323 567L323 700L240 700L240 567L115 619L82 541L213 485L122 373L188 319L281 434L375 319L442 373L350 485Z"  horiz-adv-x="564" vert-adv-y="1000"  />

      
      <glyph glyph-name="uni5c" unicode="&#x5c;" d="M196 770L82 770L285 0L399 0Z"  horiz-adv-x="481" vert-adv-y="1000"  />

      
      </font>
</defs>
</svg>
